<svg width="50" height="50" viewBox="0 0 50 50" fill="none" xmlns="http://www.w3.org/2000/svg">
<path d="M33.4965 16.7104L38.3565 16.6068C39.5406 16.5757 41.5897 17.8187 42.2796 18.7717L46.2953 24.3754C47.5 26.0638 48.2002 28.239 48.2002 30.3107V36.6292C48.2002 37.81 47.222 38.794 46.0482 38.794H45.1112M28.0598 38.794H20.9654M4.24349 38.794H3.85221C2.69898 38.794 1.7002 37.8204 1.7002 36.6292V32.807M26.6697 6H28.379C29.5631 6 30.531 6.99439 30.531 8.16486V26.82C30.531 27.9904 29.5425 28.9848 28.379 28.9848H3.85221C2.68868 28.9848 1.7002 28.0112 1.7002 26.82V20.7604M48.0766 28.7259H38.1609C36.9871 28.7259 36.0089 27.7522 36.0089 26.561V16.8243M36.5855 35.0547C39.242 35.0547 41.4044 37.2196 41.4044 39.9024C41.4044 42.5851 39.2523 44.75 36.5855 44.75C33.9186 44.75 31.7666 42.5851 31.7666 39.9024C31.7666 37.2196 33.9186 35.0547 36.5855 35.0547ZM12.3779 35.0547C15.0345 35.0547 17.1968 37.2196 17.1968 39.9024C17.1968 42.5851 15.0447 44.75 12.3779 44.75C9.71105 44.75 7.55903 42.5851 7.55903 39.9024C7.55903 37.2196 9.71105 35.0547 12.3779 35.0547Z" stroke="#E2D0D4" stroke-width="3.02" stroke-linecap="round" stroke-linejoin="round"/>
</svg>
