<svg width="1441" height="414" viewBox="0 0 1441 414" fill="none" xmlns="http://www.w3.org/2000/svg">
<path d="M1306.88 28.9175C1298.22 28.9175 1291.17 35.9732 1291.17 44.6499V117.743C1291.17 127.589 1283.17 135.597 1273.33 135.597C1263.5 135.597 1255.5 127.589 1255.5 117.743V21.4808C1255.5 9.63667 1245.87 0 1234.04 0C1222.21 0 1212.58 9.63667 1212.58 21.4808V82.7708C1212.58 92.6166 1204.58 100.625 1194.75 100.625C1184.91 100.625 1176.91 92.6166 1176.91 82.7708V52.2323C1176.91 40.3881 1167.29 30.7514 1155.45 30.7514C1143.62 30.7514 1134.86 39.5552 1134.06 50.6747H1134V131.111C1134 140.957 1126 148.965 1116.16 148.965C1106.33 148.965 1098.33 140.957 1098.33 131.111V34.692H1098.32C1098.24 22.9226 1088.65 13.3718 1076.87 13.3718C1065.09 13.3718 1055.41 23.0085 1055.41 34.8526V48.2244C1055.41 58.0703 1047.41 66.0784 1037.58 66.0784C1027.74 66.0784 1019.74 58.0703 1019.74 48.2244V21.4808C1019.74 9.63667 1010.12 0 998.285 0C986.453 0 976.827 9.63667 976.827 21.4808V92.7847H976.861V115.954C976.861 125.8 968.861 133.808 959.026 133.808C949.191 133.808 941.191 125.8 941.191 115.954V44.6462C941.191 35.9732 934.143 28.9138 925.476 28.9138H0V414H1441V28.9175H1306.88Z" fill="#E2D0D4"/>
</svg>
