<svg width="414" height="396" viewBox="0 0 414 396" fill="none" xmlns="http://www.w3.org/2000/svg">
<path d="M416 253.03V33.7957C416 22.4187 406.764 13.2047 395.385 13.2047C383.994 13.2047 374.769 22.4187 374.769 33.7957V119.188L374.509 133.453C374.509 144.83 365.284 154.044 353.894 154.044C342.504 154.044 333.279 144.83 333.279 133.453V125.515L333.538 118.117V20.5911C333.538 9.21407 324.314 0 312.923 0C301.533 0 292.308 9.21407 292.308 20.5911V32.9846L292.34 73.5287C292.34 84.9057 283.115 94.1197 271.725 94.1197C260.334 94.1197 251.109 84.9057 251.109 73.5287V44.048C251.109 36.0019 244.58 29.4699 236.514 29.4699H0V398H416V253.03Z" fill="#E2D0D4"/>
</svg>
