<?xml version="1.0" encoding="UTF-8"?><svg id="Layer_1" xmlns="http://www.w3.org/2000/svg" viewBox="0 0 500 168.9"><defs><style>.cls-1{fill:#010101;}.cls-2{fill:#ee3e3c;}.cls-3{fill:#fff;}.cls-4{fill:#ef3f3c;}.cls-5{fill:#7bbc43;}.cls-6{fill:#5c1b0f;}.cls-7{fill:#5f1c13;}</style></defs><path d="m454.35,33.44c-7.96-.15-12.65-.1-14.04.17-.12,1.49.37,6.64,1.48,15.44.29,4.2.47,6.86.58,7.95,1.27,12.87,2.4,25.17,3.42,36.91.31,3.53,2.93,2.53,2.93,2.53l32.18-3.02.14-2.35c.21-3,.57-7.28,1.11-12.85-.65-.23-1.57-.31-2.75-.24-3.45.01-6.75.31-9.91.88-3.26.53-6.58.89-9.97,1.11l-.32-.1c-.1-1.73-.12-4.09-.05-7.06l.05-.58,11.34-1.3c-.3-4.57-.03-9.14.8-13.72-.81-.24-5.03-.07-12.67.53-.14-1.56-.18-3.53-.1-5.93,0,0,11.5-2.58,20.77-1.79,2.88.25,4.56.31,5.05-.06l.05-2.04c.02-1.58.09-3.02.22-4.31l.18-2.54c.14-3.03.43-6.35.87-9.94-11.65,1.41-22.1,2.17-31.37,2.29"/><path class="cls-7" d="m455.78,34.88c-7.58-.14-12.05-.1-13.37.16-.11,1.42.35,6.32,1.41,14.7.27,4.01.45,6.53.55,7.58,1.21,12.26,2.29,23.98,3.26,35.16.29,3.37,2.79,2.41,2.79,2.41l30.65-2.88.14-2.24c.2-2.86.55-6.93,1.05-12.24-.62-.22-1.5-.29-2.62-.23-3.29.01-6.44.3-9.44.84-3.11.5-6.26.85-9.49,1.05l-.3-.1c-.1-1.65-.12-3.89-.04-6.73l.04-.55,10.8-1.24c-.29-4.35-.03-8.71.76-13.07-.77-.23-4.8-.06-12.07.51-.13-1.48-.17-3.36-.09-5.65,0,0,10.96-2.46,19.79-1.71,2.75.24,4.34.3,4.81-.05l.05-1.94c.02-1.51.09-2.87.21-4.1l.17-2.42c.14-2.88.41-6.04.83-9.46-11.1,1.34-21.05,2.07-29.89,2.18"/><path d="m427.21,100.18l-3.51-53.18,14.45-2.3c-1.04-7.31-1.48-14.49-1.33-21.58-5.64.75-15.12,1.98-28.42,3.66-9.96.73-15.88,1.25-17.75,1.56-2.75.19-5.42.5-8.04.95.8,3.58,1.67,8.54,2.59,14.89.48,3.51.86,6.66,1.15,9.44,6.84-2.16,12.93-3.5,18.29-4.04l2.21,50.59s10.2-2.53,20.36,0"/><path d="m385.71,60.73l-3.48-12.7c-1.92-6.58-3.34-12.19-4.29-16.81-.62-3.09-1.34-7.73-2.1-13.89-7.04,1.73-14.37,3.22-21.99,4.48-.6,3.89-1.16,7.91-1.7,12.08-.43,3.59-1.52,13.22-3.29,28.86-1.91,13.71-3.46,23.81-4.64,30.29,5.37,1.04,11.69,2.75,18.98,5.15.3-6.87.78-12.19,1.45-15.98,1.94-.25,4.39-1.01,7.34-2.25.79,4.2,2.03,9.13,3.7,14.75,6.04-3.8,12.01-6.75,17.92-8.85-1.85-5.05-2.98-8.38-3.4-10l-4.5-15.13Zm-20.35,8.36c.14-5.21.65-10.16,1.51-14.86.76,4.07,1.7,8.72,2.78,13.94-.81.56-2.26.86-4.28.92"/><path class="cls-7" d="m385.62,60.53l-3.25-11.88c-1.8-6.15-3.12-11.39-4.01-15.71-.58-2.89-1.25-7.23-1.97-12.99-6.58,1.62-13.43,3.01-20.56,4.18-.56,3.64-1.09,7.4-1.59,11.3-.4,3.36-1.42,12.36-3.07,26.98-1.79,12.82-3.23,22.26-4.34,28.32,5.02.97,10.93,2.57,17.75,4.81.28-6.42.73-11.39,1.36-14.94,1.81-.24,4.1-.94,6.87-2.1.73,3.93,1.9,8.54,3.45,13.79,5.64-3.55,11.23-6.31,16.76-8.27-1.73-4.72-2.78-7.83-3.17-9.34l-4.21-14.14Zm-19.03,7.82c.13-4.87.61-9.5,1.41-13.89.71,3.8,1.58,8.15,2.6,13.04-.76.52-2.11.81-4.01.86"/><path class="cls-1" d="m292.17,42.4c-9.8-7.22-26.16-1.66-36.54,12.43-10.38,14.08-10.85,31.36-1.05,38.58,9.8,7.22,26.16,1.66,36.54-12.43,10.38-14.08,10.85-31.36,1.05-38.58m-14.03,36.71c-5.26,5.26-12.14,6.92-15.36,3.7-3.22-3.22-1.56-10.09,3.7-15.36,5.26-5.26,12.14-6.92,15.36-3.7,3.22,3.22,1.56,10.09-3.7,15.36"/><path class="cls-7" d="m292.17,40.42c-9.8-7.22-26.16-1.66-36.54,12.43-10.38,14.08-10.85,31.36-1.05,38.58s26.16,1.66,36.54-12.43c10.38-14.08,10.85-31.36,1.05-38.58m-14.03,36.71c-5.26,5.26-12.14,6.92-15.36,3.7-3.22-3.22-1.56-10.09,3.7-15.36,5.26-5.26,12.14-6.92,15.36-3.7,3.22,3.22,1.56,10.09-3.7,15.36"/><path class="cls-7" d="m292.17,40.42c-9.8-7.22-26.16-1.66-36.54,12.43-10.38,14.08-10.85,31.36-1.05,38.58s26.16,1.66,36.54-12.43c10.38-14.08,10.85-31.36,1.05-38.58m-14.03,36.71c-5.26,5.26-12.14,6.92-15.36,3.7-3.22-3.22-1.56-10.09,3.7-15.36,5.26-5.26,12.14-6.92,15.36-3.7,3.22,3.22,1.56,10.09-3.7,15.36"/><path d="m236.73,52.94l-.18-27.06c-8.71.68-16.29,3.96-22.74,9.84-4.12,3.63-7.41,7.29-9.87,10.99-5.31,8.06-8.32,16.16-9.03,24.29-.2,2.8.05,5.94.76,9.44.18.65.39,1.27.61,1.89,1.36,4.91,4.24,9.57,9.62,13.12,17.24,11.4,36.87-5.55,39.54-7.98.64-.51,1.27-1.04,1.92-1.59l-3.41-19.74c-7.97,7.48-14.23,11.6-18.76,12.35-1.08.18-2.06.16-2.95-.03-3.03-.65-3.85-1.87-3.85-1.87-4.24-3.98-2.59-11.13,1.36-16.56,0,0,5.56-9,16.96-7.1"/><path class="cls-7" d="m236.95,52.61l-.17-26.09c-8.4.66-15.71,3.82-21.92,9.49-3.97,3.5-7.14,7.03-9.51,10.6-5.12,7.77-8.02,15.58-8.71,23.42-.19,2.7.05,5.73.74,9.1.17.62.37,1.23.59,1.82,1.31,4.73,4.09,9.22,9.27,12.65,16.62,10.99,35.55-5.35,38.12-7.69.61-.49,1.23-1,1.85-1.53l-3.29-19.03c-7.68,7.21-13.71,11.18-18.08,11.91-1.04.17-1.99.15-2.84-.03-2.92-.62-3.71-1.8-3.71-1.8-4.09-3.83-2.5-10.73,1.32-15.96,0,0,5.36-8.67,16.35-6.84"/><path class="cls-1" d="m115.62,13.53c-.05-.62-.42-1.16-.99-1.42-.23-.11-.48-.16-.73-.16-.35,0-.7.11-.99.32-3.6,2.55-9.07,4.57-16.27,6-.89.18-1.49,1.02-1.37,1.92,1.24,8.95,2.18,18.33,2.78,27.9l-4.99,2.28c-1.16-7.55-2.49-20.69-3.96-39.13-.04-.55-.35-1.04-.82-1.33-.27-.17-.58-.25-.89-.25-.22,0-.45.04-.66.13-5.78,2.42-11.91,3.89-18.22,4.38-.48.04-.92.27-1.22.65-.3.38-.42.86-.34,1.34,3.33,20.59,5.88,38.47,7.63,53.53,1.06,10.23,1.4,22.23,2.75,35.23.06.6.44,1.13.99,1.38.23.11.48.16.72.16.34,0,.68-.1.97-.3,4.58-3.11,9.15-5.71,12.76-7.51l3.63-1.59c.7-.31,1.11-1.05,1.01-1.81-.7-5.08-1.58-13.78-2.61-25.87l5.27-2.6c1.13,10.41,2.41,22.43,3.8,35.79.06.6.44,1.13.99,1.38.23.11.48.16.72.16.34,0,.68-.1.97-.3,5.85-3.97,10.75-6.84,14.55-8.52.67-.3,1.08-.98,1.02-1.71-1.93-23.32-4.06-49.5-6.49-80.05"/><path class="cls-1" d="m65.7,90.85s-17.33,24.51-40.96,11.75c-23.63-12.77-6.25-45.36-6.25-45.36,0,0,15.44-31.62,47.2-35.61l-4,29.87s-22.77,2.03-24.81,20.83c-2.04,18.8,18.65,7.78,23.11.66l5.71,17.87Z"/><path class="cls-7" d="m65.28,89.16s-16.45,23.28-38.89,11.16c-22.44-12.12-5.93-43.07-5.93-43.07,0,0,14.66-30.03,44.82-33.81l-3.8,28.36s-21.62,1.93-23.56,19.78c-1.94,17.85,17.71,7.38,21.94.62l5.42,16.97Z"/><path class="cls-4" d="m372.74,124.31c4.29-1.3,6.64-4.03,7.08-8.16.24-1.1.03-2.33-.63-3.7-3.59-5.47-9.91-8.67-18.95-9.62-5.22-.3-8.82-.11-10.78.6-.49,4.41-.88,8.76-1.16,13.04-.41,2.59-1.01,10.55-1.8,23.87-.01.06,1.35.53,4.09,1.39,2.75.86,5.02,1.4,6.83,1.62,4.55.52,7.5.54,8.83.08,1.86.03,4.13-.43,6.79-1.4,1.17-.4,2.25-1,3.23-1.79,1.97-1.34,3.34-3.66,4.11-7-.19-2.06-.92-3.74-2.22-5.02-1.28-1.46-3.09-2.77-5.41-3.92m-13.28-10.09c2.08-.53,4.22-.4,6.42.38,1.18.53,1.82,1.38,1.91,2.58-.19,1.62-2.97,2.56-8.32,2.85-.12-1.87-.12-3.82-.01-5.8m.82,19.92c-.52-1.89-.72-3.93-.57-6.14,2.54-.55,4.95-.42,7.25.38,1.64.56,2.59,1.55,2.86,2.94-.24,2.14-3.43,3.08-9.54,2.82"/><path class="cls-4" d="m446.87,128.9c-.46-.71-.89-1.19-1.27-1.43-1.49-1.08-2.79-1.71-3.89-1.91-1.11-.2-2.6-.13-4.49.19-.9.24-2.56.97-5.01,2.19-2.63,1.21-4.14.66-4.54-1.66-.16-3.68,1.6-6.19,5.26-7.55,4.18-1.32,8.1-1.31,11.74.01l.78-14.16c-6.76-.61-13.46,1.07-20.09,5.02-3.51,3.01-5.41,5.17-5.71,6.46-.9,1.77-1.71,3.82-2.4,6.16-1.21,4.65-1.54,8.23-1,10.74.51,1.51,1.15,2.68,1.92,3.51.99,1.18,2.12,1.97,3.4,2.35,1.36.45,2.92.62,4.68.54,1.26-.03,2.23-.16,2.92-.38.88-.07,2.4-.57,4.57-1.51,1.96-1.14,3.47-1.73,4.54-1.77.69-.15,1.13.11,1.32.76.05.6-.08,1.3-.43,2.12-.81,1.47-1.89,2.88-3.24,4.2-1.86,1.49-4.6,2.42-8.23,2.8-3.14.27-5.51.21-7.11-.17-.93,4.88-1.9,8.42-2.92,10.64,1.5.46,3.04.71,4.62.75,6.83-.04,12.23-1.16,16.2-3.36,3.24-2.05,5.43-4.13,6.58-6.26.77-1.09,1.65-2.77,2.63-5.05,1.2-3.73,1.48-6.92.86-9.59-.38-1.54-.95-2.75-1.7-3.64"/><path class="cls-4" d="m483.11,97.05c-2.67,1.89-6.63,3.36-11.88,4.4.92,6.58,1.59,13.42,2.01,20.48l-5.68,2.59c-.89-5.02-1.9-14.72-3.05-29.09-4.19,1.75-8.57,2.81-13.14,3.16,4.42,27.37,6.86,47.69,7.3,60.93l11.67-5.11c-.5-3.66-1.13-10-1.9-19.02l5.97-2.94c.82,7.54,1.78,16.48,2.85,26.8,4.16-2.83,7.63-4.85,10.4-6.08-1.37-16.54-2.89-35.25-4.55-56.12"/><path class="cls-4" d="m406.3,128.52l-2.15-7.84c-1.19-4.07-2.06-7.53-2.65-10.38-.38-1.91-.82-4.77-1.3-8.58-4.35,1.07-8.87,1.99-13.58,2.76-.37,2.41-.72,4.89-1.05,7.46-.26,2.22-.94,8.16-2.03,17.82-1.18,8.47-2.14,14.7-2.87,18.7,3.31.64,7.22,1.7,11.72,3.18.18-4.24.48-7.53.9-9.87,1.2-.16,2.71-.62,4.53-1.39.49,2.6,1.25,5.64,2.28,9.11,3.73-2.35,7.41-4.17,11.07-5.46-1.14-3.12-1.84-5.17-2.1-6.17l-2.78-9.34Zm-12.57,5.16c.09-3.22.4-6.27.93-9.18.47,2.51,1.05,5.38,1.71,8.61-.5.35-1.4.53-2.65.57"/><path class="cls-3" d="m395.93,104.73c.59,3.52,6.76,19.24,7.85,22.01-1.07-3.21-5.88-22.7-5.88-22.7l-1.97.68Z"/><polygon class="cls-3" points="481.37 101.72 477.32 102.43 482.2 122.96 481.37 101.72"/><path class="cls-1" d="m329.27,100.91c-4.12,1.33-10.07,3.18-17.7,5.5-.16.05-.33.07-.5.07-.34,0-.67-.1-.95-.29-.43-.29-.71-.75-.76-1.26-.61-6.23-1.5-12.74-2.63-19.36-1.26-6.64-2.33-12.25-3.23-16.79-1.25-6.85-2.76-14.13-4.47-21.66-.2-.89.32-1.78,1.19-2.03,6.68-1.94,13.45-4.07,20.13-6.33.18-.06.36-.09.55-.09.33,0,.65.09.93.28.44.29.73.76.78,1.28,1.21,12.76,2.04,21.17,2.47,25.02.24,3.86.5,7.99.79,12.46l.33,3.74,3.24-1.39c1.43-.82,4.64-2.36,9.55-4.55,2.79-1.59,3.35-1.74,3.83-1.77.04,0,.07,0,.11,0,.44,0,.88.17,1.2.49.35.34.54.81.52,1.29-.67,18.78-.91,19.43-1.08,19.91-.02.06-.04.11-.07.16l-.04.42"/><path class="cls-1" d="m341.83,94.87s.08-.04.12-.06c.22-.59.54-7.05.98-19.38-.28.02-1.33.54-3.16,1.59-5.06,2.27-8.25,3.79-9.56,4.56l-5.52,2.38-.54-6.15c-.29-4.47-.55-8.6-.78-12.38-.43-3.79-1.25-12.14-2.47-25.05-6.69,2.26-13.42,4.38-20.2,6.35,1.73,7.58,3.23,14.82,4.49,21.71.9,4.54,1.97,10.16,3.23,16.84,1.14,6.68,2.03,13.18,2.65,19.49,7.74-2.35,13.68-4.2,17.84-5.54,1.78-.19,3.56-.31,5.35,0"/><path class="cls-7" d="m426.59,96.57l-3.37-50.95,15.76-2.2c-1-7-1.42-13.89-1.27-20.67-5.41.72-14.48,1.89-27.23,3.51-9.54.7-15.21,1.2-17.01,1.49-2.64.18-5.19.48-7.7.91.77,3.43,1.6,8.19,2.48,14.26.46,3.37.82,6.38,1.1,9.05,6.55-2.07,12.39-3.36,17.52-3.87l2.12,48.47s7.86-2.42,17.59,0"/><path class="cls-7" d="m341.83,93.07s.66-7.1,1.1-19.44c-.28.02-1.33.54-3.16,1.59-5.06,2.27-8.25,3.79-9.56,4.56l-5.52,2.38-.54-6.15c-.29-4.47-.55-8.6-.78-12.38-.43-3.79-1.25-12.14-2.47-25.05-6.69,2.26-13.42,4.38-20.2,6.35,1.73,7.58,3.23,14.82,4.49,21.71.9,4.54,1.97,10.16,3.23,16.84,1.14,6.68,2.03,13.18,2.65,19.49,7.74-2.35,13.68-4.19,17.84-5.54l12.93-4.35Z"/><path class="cls-7" d="m96.98,18.14c7.48-1.49,13.12-3.58,16.93-6.28,2.37,29.77,4.54,56.45,6.5,80.05-3.95,1.74-8.89,4.64-14.83,8.67-1.53-14.73-2.89-27.48-4.07-38.23l-8.52,4.2c1.09,12.88,2,21.92,2.72,27.13l-9.9,4.34-6.82,2.78s-4.03-47.69-10.34-86.72c6.52-.51,12.77-2.01,18.75-4.51,1.64,20.5,3.08,34.34,4.34,41.49l8.11-3.7c-.61-10.08-1.56-19.82-2.86-29.21"/><path class="cls-3" d="m289.74,44.61c8.02,16.8,1.87,27.3,1.87,27.3,0,0,5.41-5.85,4.38-14.33-1.03-8.48-6.25-12.97-6.25-12.97"/><polygon class="cls-3" points="314.2 99.8 318.24 97.96 309.62 69.12 314.2 99.8"/><path class="cls-3" d="m369.91,24.87c.84,5,9.61,27.34,11.2,31.36-1.55-4.63-8.39-32.35-8.39-32.35l-2.81.99Z"/><path class="cls-3" d="m379.43,56.23c.11.33.2.55.25.63,0,0-.09-.22-.25-.63"/><path class="cls-3" d="m202.9,61.64s-9.77,24.85,14.73,31.96c0,0-17.29-5.62-14.73-31.96"/><polygon class="cls-3" points="434.99 28.64 434.99 25.23 393.35 30.25 434.99 28.64"/><polygon class="cls-3" points="448 38.58 452.05 73.69 452.05 38.58 448 38.58"/><polygon class="cls-3" points="111.53 16.5 107.44 19.73 115.38 61.84 111.88 19.72 111.53 16.5"/><path class="cls-3" d="m21.08,64.78s-9.77,24.86,14.73,31.96c0,0-17.29-5.61-14.73-31.96"/><g><path class="cls-3" d="m190.06,35.2c-5.28-3.28-13.92-3.75-21.14-3.41,1.11-.96,2.08-2.04,2.86-3.27,3.43-5.39,2.64-11.72,1.87-15.01-.08-.34-.09-.57-.09-.7.03,0,.05-.02.08-.02.84-.25,1.37-1.08,1.23-1.95-.14-.87-.9-1.5-1.79-1.46-.13,0-.59.04-1.11.28-10.23,3.19-14.35,9.07-15.98,13.8-1.46-2.71-3.77-5.54-7.61-7.64-7.29-3.98-19.42-.16-19.94,0-.7.23-1.19.87-1.21,1.61-.02.74.43,1.41,1.12,1.67,3.13,1.19,5.49,7.23,6.45,12.7.37,2.12,1.31,3.66,2.88,4.72.68.46,1.48.82,2.42,1.09-3.64,1.51-7.28,3.49-10.22,6.05-11.16,9.69-12.29,22.48-3.18,36,9.63,14.29,28.42,21.64,36.23,21.75.12,0,.24,0,.36,0,7.79-.13,22.44-9.53,28.54-26.21,7.81-21.32,7.24-34.41-1.75-40"/><path class="cls-2" d="m168.15,43.79s-16.79-2.84-28.92,3.38c-12.13,6.22-11.39,16.09-9.6,22.79,1.79,6.7,16.86,24.46,29.28,28.18,12.42,3.72,24.52-11.54,24.52-11.54,0,0,9.15-15.17,10.61-24.6,1.46-9.43,2.82-12.31,2.82-12.31,0,0-5.58-11.25-18.49-11.28-12.91-.03-23.24,2.08-23.24,2.08,0,0,8.7.12,13.01,3.3"/><path class="cls-3" d="m190.14,42.6c-.03,2.46-1.28,4.44-2.78,4.42-1.5-.02-2.69-2.03-2.66-4.5.03-2.46,1.28-4.44,2.78-4.42,1.5.02,2.69,2.03,2.66,4.5"/><path class="cls-3" d="m191.9,50.13c-.02,1.68-.87,3.04-1.9,3.02-1.03-.01-1.84-1.39-1.82-3.07s.87-3.03,1.9-3.02c1.03.01,1.84,1.39,1.82,3.07"/><path class="cls-5" d="m161.4,32.05c.22-8.65,6.29-13.52,9.27-15.39.36,2.86.25,6.71-1.84,9.99-1.56,2.45-4.06,4.26-7.43,5.4"/><path class="cls-5" d="m150.95,34.18c-5.03.71-8.45.69-10.43-.06-.76-1.91-.84-4.67-1.51-7.52-1.03-4.34-3.46-6.82-3.46-6.82,6.02-.79,11.33.5,14.61,1.66,2.35,2.31,3.51,4.99,4.24,7.22-2.67-1.91-7.16-4.72-10.82-5.09,0,0,9.52,8,7.38,10.61"/><path d="m174.86,10.84c-.14-.87-.9-1.5-1.79-1.46-.13,0-.59.04-1.12.28-10.23,3.19-14.35,9.07-15.98,13.8-1.46-2.71-3.77-5.54-7.62-7.64-7.29-3.98-19.42-.16-19.94,0-.7.23-1.19.87-1.21,1.61-.02.74.43,1.41,1.12,1.67,3.13,1.19,5.49,7.24,6.45,12.7.37,2.12,1.31,3.66,2.87,4.72,1.55,1.05,3.71,1.6,6.77,1.64,3.59.05,8.42-.6,14.92-1.96,5.76-1.21,9.94-3.79,12.42-7.69,3.43-5.39,2.64-11.72,1.87-15.01-.08-.34-.09-.57-.09-.69.03,0,.05-.02.08-.02.84-.25,1.37-1.08,1.23-1.95m-23.91,23.34c-5.91.83-9.59.66-11.33-.53-.76-.52-1.2-1.27-1.4-2.44-.41-2.38-1.85-9.07-5.3-12.94,4.11-.83,10.08-1.41,13.77.61,4.8,2.62,6.69,6.65,7.7,9.78-2.68-1.91-7.16-4.73-10.82-5.08,0,0,9.52,8,7.38,10.61m17.89-7.53c-1.88,2.96-5.12,4.98-9.64,6.03-.29-.62-.66-1.59-.77-2.71-.02-.31-.05-.88,0-1.65.23-3.33,1.95-10.24,11.75-14.32.02.1.04.2.07.31.65,2.76,1.33,8.03-1.42,12.34"/><path class="cls-3" d="m176.13,47.4s-3.31,2.14-.56,6.48c0,0,3.96-2.64.56-6.48"/><path class="cls-3" d="m157.01,50.86s-3.31,2.14-.56,6.48c0,0,3.96-2.64.56-6.48"/><path class="cls-3" d="m142.53,55.75s-3.31,2.14-.56,6.48c0,0,3.96-2.64.56-6.48"/><path class="cls-3" d="m150.45,70.84s-3.31,2.14-.56,6.48c0,0,3.96-2.64.56-6.48"/><path class="cls-3" d="m166.91,64.84s-3.31,2.14-.56,6.48c0,0,3.96-2.64.56-6.48"/><path class="cls-3" d="m184.51,58.18s-3.31,2.14-.56,6.48c0,0,3.96-2.64.56-6.48"/><path class="cls-3" d="m182.26,70.34s-3.31,2.14-.56,6.48c0,0,3.96-2.64.56-6.48"/><path d="m190.06,35.2c-10.02-6.24-32.21-2.31-33.67-2.04-1.18.16-17.3,2.48-26.54,10.5-5.12,4.44-8.12,9.53-9,15.05h0s-1.91,7,2.47,16.71h0c.25.6.63,1.24,1.13,1.92.83,1.1,2.43,3.01,4.32,5.16.98,1.21,2.01,2.36,3.1,3.45,3.15,3.43,6.41,6.76,8.06,7.98,3.57,2.65,7.03,5.6,7.84,9.05.07.32.15.63.22.95.89,3.87,1.82,7.97,5.25,7.3,2.15-.43,3.43-1.54,3.82-3.29,0,0,0-.01,0-.02,0,0,0-.01,0-.02,0,0,0-.01,0-.02,0,0,0-.01,0-.02,0,0,0-.02,0-.02,0,0,0-.02,0-.02,0,0,0-.02,0-.02,0,0,0-.02,0-.02,0,0,0-.02,0-.02,0,0,0-.02,0-.02,0,0,0-.02,0-.02,0,0,0-.01,0-.02,0,0,0-.02,0-.02,0,0,0-.01,0-.02,0,0,0-.02,0-.02,0,0,0-.01,0-.02,0,0,0-.02,0-.02,0,0,0-.01,0-.02,0,0,0-.02,0-.02,0,0,0-.01,0-.02,0,0,0-.02,0-.02,0,0,0-.02,0-.02,0,0,0-.01,0-.02,0,0,0-.01,0-.02,0,0,0-.01,0-.02,0,0,0-.01,0-.02,0,0,0-.01,0-.02,0,0,0-.01,0-.02,0,0,0-.02,0-.02,0,0,0-.01,0-.02,0,0,0-.02,0-.02,0,0,0-.02,0-.02,0,0,0-.02,0-.02,0,0,0-.02,0-.02,0,0,0-.02,0-.02,0,0,0-.01,0-.02,0,0,0-.02,0-.02,0,0,0-.02,0-.02,0,0,0-.02,0-.02,0,0,0-.02,0-.02,0,0,0-.01,0-.02,0,0,0-.02,0-.02,0,0,0-.01,0-.02,0,0,0-.02,0-.02,0,0,0-.01,0-.02,0,0,0-.02,0-.02,0,0,0-.01,0-.02,0,0,0-.01,0-.02,0,0,0-.01,0-.02,0,0,0-.02,0-.02,0,0,0-.01,0-.02,0,0,0-.01,0-.02,0,0,0-.01,0-.02,0,0,0-.02,0-.02,0,0,0-.01,0-.02,0,0,0-.02,0-.02,0,0,0-.01,0-.02,0,0,0-.02,0-.02,0,0,0-.01,0-.02,0,0,0-.02,0-.02,0,0,0-.01,0-.02,0,0,0-.02,0-.02,0,0,0-.01,0-.02,0,0,0-.02,0-.02,0,0,0-.02,0-.02,0,0,0-.02,0-.02,0,0,0-.02,0-.02,0,0,0-.02,0-.02,0,0,0-.02,0-.02,0,0,0-.02,0-.02v-.02s0-.01.01-.02c0,0,0-.01,0-.02,0,0,0-.01,0-.02,0,0,0-.01,0-.02,0,0,0-.01,0-.02,0,0,0-.02,0-.02,0,0,0-.01,0-.02,0,0,0-.02,0-.02,0,0,0-.01,0-.02.05-.2.06-.42.09-.64.01,0,.02-.01.03-.01.68-.16,2.11.36,3.04,2.43,2.03,4.53,2.46,9.83,1.21,15.85-1.22,5.85-.79,11.27,1.21,14.35,1.06,1.63,2.48,2.58,4.23,2.82.76.11,1.49.11,2.19.01,1.61-.23,2.99-1.01,3.99-2.27.72-.91,1.41-2.27,1.71-4.26,0,0,0-.02,0-.02,0,0,0-.01,0-.02,0,0,0-.01,0-.02,0,0,0-.01,0-.02,0,0,0-.01,0-.02,0,0,0-.01,0-.02s0-.01,0-.02c0,0,0-.01,0-.02,0,0,0-.01,0-.02,0,0,0-.01,0-.02,0,0,0-.01,0-.02,0,0,0-.01,0-.02,0,0,0-.01,0-.02,0,0,0-.01,0-.02,0,0,0-.01,0-.02,0,0,0-.01,0-.02,0,0,0-.01,0-.02,0,0,0-.01,0-.02,0,0,0-.01,0-.02,0,0,0-.01,0-.02,0,0,0-.01,0-.02,0,0,0-.01,0-.02,0,0,0-.01,0-.02,0,0,0-.01,0-.02v-.02s0-.02,0-.02,0-.01,0-.02c0,0,0-.02,0-.02,0,0,0-.01,0-.02,0,0,0-.01,0-.02,0,0,0-.01,0-.02,0,0,0-.01,0-.02,0,0,0-.01,0-.02,0,0,0-.01,0-.02,0,0,0-.01,0-.02,0,0,0-.01,0-.02,0,0,0-.01,0-.02,0,0,0-.01,0-.02,0,0,0-.01,0-.02,0,0,0-.01,0-.02,0,0,0-.01,0-.02s0-.02,0-.02c0,0,0-.01,0-.02,0,0,0-.01,0-.02,0,0,0-.01,0-.02,0,0,0-.01,0-.02,0,0,0-.01,0-.02,0,0,0-.01,0-.02,0,0,0-.01,0-.02v-.02s0-.02,0-.02c0,0,0-.01,0-.02s0-.01,0-.02c0,0,0-.01,0-.02,0,0,0-.02,0-.02,0,0,0-.01,0-.02,0,0,0-.01,0-.02,0,0,0-.01,0-.02,0,0,0-.01,0-.02,0,0,0-.01,0-.02,0,0,0-.01,0-.02,0,0,0-.01,0-.02,0,0,0-.01,0-.02,0,0,0-.01,0-.02,0,0,0-.01,0-.02,0,0,0-.01,0-.02,0,0,0-.01,0-.02,0,0,0-.01,0-.02,0,0,0-.02,0-.02,0,0,0-.01,0-.02,0,0,0-.01,0-.02,0,0,0-.01,0-.02,0,0,0-.01,0-.02,0,0,0-.01,0-.02,0,0,0-.01,0-.02s0-.01,0-.02c0,0,0-.01,0-.02,0,0,0-.01,0-.02,0,0,0-.01,0-.02,0,0,0-.01,0-.02.31-2,.22-4.64-.63-8.11-.67-2.75-1.58-5.09-2.36-7.13-1.19-3.08-2.16-5.59-1.91-8.23.33-1.06.86-2.15,1.67-3.33,1.65-2.39,4-5.61,6.42-8.92,4.66-6.38,9.64-13.19,11.38-16.55,2.01-3.88,4.43-11.64,5.25-15.47,0,0,0-.01,0-.02,0,0,0-.01,0-.02,0,0,0-.01,0-.02,0,0,0-.01,0-.02,0,0,0-.01,0-.02,0,0,0-.01,0-.02,0,0,0-.01,0-.02,0,0,0-.01,0-.02,0,0,0-.01,0-.02,0,0,0-.01,0-.02,0,0,0-.01,0-.02,0-.02,0-.03,0-.05,0,0,0-.01,0-.02,0,0,0-.01,0-.02,0,0,0-.01,0-.02,0,0,0-.01,0-.02,0,0,0-.01,0-.02,0,0,0-.01,0-.02,0,0,0-.01,0-.02,0,0,0-.01,0-.02,0,0,0-.01,0-.02,0,0,0-.01,0-.02,0,0,0-.01,0-.02,0,0,0-.01,0-.02,0-.02,0-.03,0-.05,0,0,0-.01,0-.02,0,0,0-.01,0-.02,0,0,0-.01,0-.02,0,0,0-.01,0-.02,0,0,0-.01,0-.02,0,0,0-.01,0-.02,0,0,0-.01,0-.02,0,0,0-.01,0-.02,0,0,0-.01,0-.02,0,0,0-.01,0-.02,0,0,0-.01,0-.02,0-.02,0-.03,0-.05,0,0,0-.01,0-.02,0,0,0-.01,0-.02,0,0,0-.01,0-.02,0,0,0-.01,0-.02,0,0,0-.01,0-.02,0,0,0-.01,0-.02,0,0,0-.01,0-.02,0,0,0-.01,0-.02,0,0,0-.01,0-.02,0,0,0-.01,0-.02,0,0,0-.01,0-.02,0,0,0-.01,0-.02,0-.02,0-.03,0-.05,0,0,0-.01,0-.02,0,0,0-.01,0-.02,0,0,0-.01,0-.02,0,0,0-.01,0-.02,0,0,0-.02,0-.02,0,0,0-.01,0-.02,0,0,0-.01,0-.02,0,0,0-.01,0-.02,0,0,0-.01,0-.02,0,0,0-.01,0-.02,0,0,0-.01,0-.02,0-.02,0-.03,0-.05,0,0,0-.01,0-.02,0,0,0-.01,0-.02,0,0,0-.01,0-.02,0,0,0-.01,0-.02,0,0,0-.01,0-.02,0,0,0-.01,0-.02,0,0,0-.01,0-.02,0,0,0-.01,0-.02,0,0,0-.01,0-.02,0,0,0-.01,0-.02,0,0,0-.01,0-.02,0,0,0-.01,0-.02.14-.67.24-1.23.28-1.62,2.93-13.33.98-21.96-5.88-26.23Zm-60.5,42.52c-1.27-1.88-2.28-3.69-3.09-5.42.34-.02.7-.02,1.13.02,3.82.38,8.75,5.15,9.05,5.44,2.59,2.89,9.49,5.74,12.66,3.61.26-.17.52-.35.78-.54,2.37-1.63,5.26-3.62,9.26-3.31,2.06.16,3.17.89,4.45,1.75,1.44.96,3.08,2.05,6.15,2.32,5.93.52,10.93-2.4,13.01-7.42,1.8-4.34,5.03-8.19,7.53-11.18l.54-.65c.52-.62,1-.98,1.4-1.16-.88,3.82-2.18,8.09-3.92,12.82-5.69,15.53-19.52,23.83-25.33,23.93-.07,0-.15,0-.23,0-5.73-.08-23.96-6.19-33.41-20.21Zm2.58-31.43c8.59-7.46,24.6-9.66,24.76-9.68.03,0,.06,0,.09-.01.14-.02,8.42-1.53,16.89-1.41,5.38.07,10.84.8,14.34,2.98,5.08,3.17,6.71,9.73,4.88,19.92-.79.01-1.76.41-2.83,1.67l-.55.64c-2.56,3.02-5.86,6.91-7.74,11.37-1.93,4.57-6.29,7.11-11.63,6.63-2.62-.23-3.93-1.1-5.31-2.02-1.35-.9-2.75-1.83-5.25-2.02-4.57-.36-7.85,1.87-10.29,3.54-.26.18-.52.35-.77.52-2.18,1.45-8.12-.78-10.43-3.36l-.03-.03c-.23-.22-5.53-5.42-10.02-5.87-1.3-.13-2.24-.01-2.94.22-3.61-10.7,1.34-18.28,6.84-23.06Zm39.11,56.65c-1.23,1.76-1.91,3.38-2.21,4.95,0,0,0,.02,0,.02,0,0,0,.01,0,.02,0,0,0,.02,0,.02,0,0,0,.01,0,.02,0,0,0,.02,0,.02,0,0,0,.01,0,.02,0,0,0,.01,0,.02,0,0,0,.02,0,.02,0,0,0,.01,0,.02,0,0,0,.01,0,.02,0,0,0,.01,0,.02,0,0,0,.01,0,.02,0,0,0,.01,0,.02,0,0,0,.02,0,.02,0,0,0,.02,0,.02,0,0,0,.02,0,.02,0,0,0,.02,0,.02,0,0,0,.02,0,.02,0,0,0,.01,0,.02,0,0,0,.02,0,.02,0,0,0,.01,0,.02,0,0,0,.02,0,.02,0,0,0,.01,0,.02,0,0,0,.01,0,.02,0,0,0,.01,0,.02,0,0,0,.02,0,.02,0,0,0,.01,0,.02,0,0,0,.01,0,.02,0,0,0,.01,0,.02,0,0,0,.01,0,.02,0,0,0,.01,0,.02,0,0,0,.02,0,.02,0,0,0,.02,0,.02s0,.01,0,.02c0,0,0,.01,0,.02,0,0,0,.02,0,.02,0,0,0,.01,0,.02s0,.02,0,.02c0,0,0,.01,0,.02,0,0,0,.02,0,.02,0,0,0,.01,0,.02,0,0,0,.02,0,.02,0,0,0,.01,0,.02,0,0,0,.01,0,.02,0,0,0,.01,0,.02,0,0,0,.01,0,.02,0,0,0,.02,0,.02,0,0,0,.01,0,.02,0,0,0,.02,0,.02,0,0,0,.02,0,.02,0,0,0,.02,0,.02,0,0,0,.02,0,.02,0,0,0,.02,0,.02,0,0,0,.01,0,.02,0,0,0,.02,0,.02,0,0,0,.01,0,.02,0,0,0,.02,0,.02,0,0,0,.01,0,.02,0,0,0,.02,0,.02,0,0,0,.01,0,.02,0,0,0,.01,0,.02,0,0,0,.01,0,.02,0,0,0,.02,0,.02,0,0,0,.01,0,.02,0,0,0,.01,0,.02,0,0,0,.01,0,.02,0,0,0,.02,0,.02,0,0,0,.01,0,.02,0,0,0,.02,0,.02,0,0,0,.01,0,.02,0,0,0,.02,0,.02,0,0,0,.01,0,.02s0,.02,0,.02c0,0,0,.01,0,.02,0,0,0,.01,0,.02,0,0,0,.01,0,.02,0,0,0,.01,0,.02,0,0,0,.02,0,.02,0,0,0,.02,0,.02,0,0,0,.01,0,.02-.67,3.44.52,6.55,1.85,10.05.8,2.09,1.63,4.29,2.26,6.92.63,2.63.81,4.94.59,6.85-.24.74-.57,1.39-.99,1.91-1.33,1.65-3.22,1.77-4.57,1.58-1.21-.17-2.17-.81-2.91-1.95-1.7-2.6-2.05-7.41-.97-12.74,1.29-6.41.79-12.07-1.41-16.92-1.14-2.52-3.13-3.6-4.66-3.46-.12.01-.24.03-.35.06-.84.19-1.41.74-1.61,1.48,0,0,0,.01,0,.02,0,0,0,.02,0,.02,0,0,0,.01,0,.02,0,0,0,.02,0,.02,0,0,0,.01,0,.02,0,0,0,.02,0,.02,0,0,0,.01,0,.02,0,0,0,.02,0,.02,0,0,0,.01,0,.02,0,0,0,.02,0,.02,0,0,0,.02,0,.02s0,.02,0,.02c0,0,0,.02,0,.02,0,0,0,.02,0,.02,0,0,0,.02,0,.02,0,0,0,.02,0,.02,0,0,0,.02,0,.02,0,0,0,.02,0,.02,0,0,0,.02,0,.02s0,.02,0,.02c0,0,0,.02,0,.02,0,0,0,.01,0,.02,0,0,0,.02,0,.02,0,0,0,.01,0,.02,0,0,0,.02,0,.02,0,0,0,.01,0,.02,0,0,0,.02,0,.02,0,0,0,.01,0,.02,0,0,0,.01,0,.02,0,0,0,.01,0,.02,0,0,0,.01,0,.02,0,0,0,.01,0,.02,0,0,0,.02,0,.02,0,0,0,.01,0,.02s0,.02,0,.02c0,0,0,.01,0,.02,0,0,0,.02,0,.02,0,0,0,.01,0,.02s0,.02,0,.02c0,0,0,.01,0,.02,0,0,0,.02,0,.02,0,0,0,.02,0,.02,0,0,0,.02,0,.02,0,0,0,.02,0,.02,0,0,0,.02,0,.02,0,0,0,.02,0,.02,0,0,0,.02,0,.02,0,0,0,.01,0,.02,0,0,0,.01,0,.02,0,0,0,.02,0,.02,0,0,0,.01,0,.02,0,0,0,.02,0,.02s0,.01,0,.02c0,0,0,.02,0,.02s0,.01,0,.02c0,0,0,.02,0,.02,0,0,0,.01,0,.02,0,0,0,.02,0,.02,0,0,0,.01,0,.02,0,0,0,.02,0,.02,0,0,0,.01,0,.02,0,0,0,.02,0,.02,0,0,0,.01,0,.02,0,0,0,.02,0,.02s0,.01,0,.02c0,0,0,.02,0,.02,0,0,0,.01,0,.02,0,0,0,.01,0,.02,0,0,0,.01,0,.02,0,0,0,.01,0,.02s0,.02,0,.02c0,0,0,.02,0,.02,0,0,0,.02,0,.02,0,0,0,.02,0,.02,0,0,0,.02,0,.02,0,0,0,.02,0,.02,0,0,0,.02,0,.02,0,0,0,.02,0,.02,0,0,0,.02,0,.02,0,0,0,.01,0,.02-.07.25-.09.51-.07.8,0,.11,0,.2,0,.3-.39.65-1.09,1.06-2.18,1.27-1.63.32-2.34-2.19-3.23-5.98-.08-.32-.15-.64-.23-.95-.3-1.26-.89-2.44-1.67-3.55,5.89,2.76,11.36,4.18,14.75,4.22.12,0,.24,0,.36,0,3.45-.06,8.26-1.94,13.06-5.47-1.93,2.61-3.73,5.07-5.08,7Z"/><path class="cls-3" d="m167.62,138.05c-1.75-.25-2.55-.85-3.61-2.48-2-3.08-2.16-7.88-.95-13.72,1.25-6.02.87-11.28-1.16-15.81-.93-2.08-3.1-3.49-3.78-3.34-.38.09-1.56,1.15-1.54,1.35.26,2.9.19,3.77-2.67,4.33-3.43.67-3.86-2.53-4.74-6.4-.07-.32-.64-1.75-.71-2.07-.81-3.45-4.71-6.44-8.29-9.1-3.29-2.44-12.56-12.87-15.07-16.22-1.6-2.13-1.35-2.44-.41-3.63.54-.69.78-1.58,3.44-1.31,4.5.45,9.71,6.22,9.93,6.45,0,0,7.82,4.8,10,3.35.25-.17,2.35-1.19,2.61-1.37,2.44-1.67,4.41-3.39,8.99-3.02,2.5.2,3.85,1.26,5.21,2.16,1.38.92,2.92,1.84,5.53,2.07,5.34.47,10.43-3.02,12.36-7.59,1.88-4.46,5.02-7.76,7.58-10.77l1.05-1.27c1.05-1.12,1.85-1.17,2.73-.82,1.08.44,1.18.96,1.19,2.2.01,2.04-3.04,12.28-5.5,17.03-1.74,3.36-6.69,10.27-11.35,16.64-2.42,3.31-4.61,6.74-6.26,9.13-3.4,4.93-2.79,8.1-.88,13.06.79,2.04,1.8,4.66,2.47,7.41,1.69,6.92,1.57,8.99.13,10.8-1,1.26-1.33,2.46-2.94,2.69,0,0-2.61.36-3.38.25Z"/><path class="cls-6" d="m195.95,61.1c.01,2.03-3.07,12.62-5.53,17.38-1.74,3.36-6.72,10.16-11.38,16.54-2.42,3.31-4.77,6.52-6.41,8.92-3.4,4.93-2.05,8.43-.13,13.4.79,2.04,1.7,4.38,2.36,7.13.99,4.04.94,6.97.44,9.07-2.8.42-7.18.49-8.8-2.73-2.41-4.8-.15-12.79-1.78-16.88-.62-1.56-1.43-2.24-2.17-2.49-.31-1.9-.84-3.69-1.6-5.38-.93-2.08-2.36-2.6-3.04-2.44-.38.09-.41.33-.39.53.05.6.04,1.16-.05,1.67l-.63-1.09s-1.4-.4-1.81.81c-.41,1.22-1.56,1.71-2.5-2.87-.92-4.45-6.98-10.32-10.71-10.15-.28.01-.54.05-.82.1-.23-.18-.46-.35-.69-.52-3.29-2.44-12.96-13.24-15.47-16.59-.59-.79-1.01-1.54-1.26-2.23,1.68-.8,4.35-1.56,6.47.15,3.39,2.73,7.86,7.81,12.74,8.24,2,.17,4.05-.05,5.91-.82,1.13-.47,2.02-1.31,2.94-2.09.86-.73,1.75-1.32,2.8-1.75,2.28-.95,4.86-1.24,7.27-.59.65.18,1.29.42,1.9.72,1.74.86,3.35,1.07,4.75.93.58.17,1.23.29,2,.36,5.34.48,9.7-2.06,11.63-6.63,1.88-4.46,5.18-8.35,7.74-11.37l.55-.64c1.57-1.87,2.95-1.83,3.83-1.48,1.09.44,1.85,1.6,1.86,2.84"/><path d="m169.79,139.08c-.69.1-1.42.1-2.18-.01-1.75-.25-3.18-1.2-4.23-2.83-2-3.08-2.43-8.5-1.21-14.34,1.25-6.01.82-11.32-1.21-15.85-.93-2.08-2.36-2.59-3.04-2.44-.38.09-.4.33-.39.53.26,2.9-1.05,4.67-3.91,5.24-3.43.67-4.36-3.43-5.25-7.3-.07-.32-.15-.63-.22-.95-.81-3.45-4.26-6.4-7.83-9.05-3.29-2.44-12.96-13.24-15.47-16.59-1.6-2.13-1.95-3.96-1.01-5.16.54-.69,1.75-1.46,4.4-1.19,4.5.45,9.8,5.65,10.02,5.87l.03.03c2.31,2.58,8.25,4.82,10.43,3.36.25-.17.51-.34.77-.52,2.44-1.67,5.71-3.9,10.29-3.54,2.5.2,3.9,1.12,5.25,2.02,1.38.92,2.69,1.79,5.31,2.02,5.34.47,9.7-2.06,11.63-6.63,1.88-4.46,5.18-8.35,7.74-11.37l.54-.64c1.58-1.87,2.95-1.83,3.83-1.48,1.08.44,1.85,1.6,1.86,2.84.01,2.04-3.07,12.62-5.53,17.38-1.74,3.36-6.72,10.17-11.38,16.54-2.42,3.31-4.76,6.52-6.41,8.91-3.4,4.93-2.05,8.43-.13,13.4.79,2.04,1.69,4.39,2.36,7.13,1.69,6.92.36,10.54-1.08,12.35-1,1.26-2.38,2.04-3.99,2.27m-11.94-37.14c1.53-.14,3.51.94,4.66,3.46,2.2,4.85,2.71,10.51,1.41,16.92-1.07,5.33-.73,10.14.97,12.74.75,1.14,1.7,1.78,2.91,1.95,1.35.19,3.24.07,4.57-1.58,1.64-2.05,1.9-5.84.77-10.6-.63-2.63-1.46-4.82-2.26-6.92-1.94-5.09-3.56-9.36.35-14.98,1.67-2.39,4.04-5.6,6.47-8.89,4.66-6.3,9.64-13.03,11.36-16.3,2.52-4.8,5.52-15.16,5.52-16.88,0-.7-.38-1.4-.87-1.59-.46-.19-1.31.04-2.32,1.24l-.54.65c-2.5,2.98-5.73,6.83-7.53,11.17-2.08,5.02-7.08,7.93-13.01,7.41-3.07-.27-4.71-1.36-6.15-2.32-1.28-.86-2.38-1.59-4.45-1.75-1.96-.15-3.89.27-5.66,1.11-1.75.83-3.17,2.19-4.91,3.02-2.23,1.08-4.99.25-7.14-.63-2.84-1.17-4.78-3.22-7.1-5.13-1.93-1.58-4.39-3.35-6.95-3.6-1.42-.14-2.42.05-2.8.55-.53.68-.13,2.08,1.06,3.66,2.41,3.19,12.03,13.87,15.15,16.17,3.8,2.81,7.49,5.97,8.43,9.9.08.32.15.64.23.95.89,3.79,1.61,6.3,3.23,5.98,1.98-.39,2.72-1.38,2.55-3.42-.09-1.12.56-2,1.67-2.26.11-.03.23-.05.35-.06"/><path class="cls-3" d="m173.44,82.86s1.84-2.13,3.6-.85c1.77,1.29,3.13,2.94,4.23,1.25,0,0-.08,1.59-1.7,1.7-1.63.12-2.64-3.28-6.13-2.1"/><path class="cls-3" d="m157.72,95.1s1.19-2.51,2.41-2.56c1.22-.05,2.12.75,2.97,1.98.86,1.23,2.82,3.43,4.02,3.32,0,0-2.32.13-3.27-1.12-.94-1.23-2.75-3.1-3.65-3.02-.91.07-2.12.72-2.47,1.4"/><path class="cls-3" d="m164.89,86.26c-.87-1-1.96-2.12-3.8-3.07-4.43-2.28-6.51,1.14-7.81,3.07-.62.92-1.65,2.36-3.02,3.25-.03.02-.05.03-.08.05-.25.15-.49.28-.74.4h0s-.03.01-.04.02c-.1.04-.2.08-.3.11-2.38.82-4.25-1.03-4.45-1.24,0,0,0,0,0-.01,3.96,2.57,6.59-2.24,7.45-3.76.85-1.49,3.62-5.09,6.86-4.29,3.14.77,5.78,5.19,5.95,5.47"/></g></svg>