<svg width="50" height="50" viewBox="0 0 50 50" fill="none" xmlns="http://www.w3.org/2000/svg">
<path d="M43.2227 20.2212V44.247C43.2227 46.3115 41.5253 48 39.4547 48H10.8928C8.81753 48 7.12012 46.3115 7.12012 44.247V20.2212" stroke="#E2D0D4" stroke-width="3" stroke-linecap="round" stroke-linejoin="round"/>
<path d="M38.1265 11.1022C42.4002 6.03685 34.1515 -2.04542 29.7638 4.37503L25.1738 11.1022" stroke="#E2D0D4" stroke-width="3" stroke-linecap="round" stroke-linejoin="round"/>
<path d="M12.2162 11.1022C7.94239 6.03685 16.1958 -2.04542 20.5788 4.37503L25.1735 11.1022" stroke="#E2D0D4" stroke-width="3" stroke-linecap="round" stroke-linejoin="round"/>
<path d="M11.015 20.2213H6.48202C4.56487 20.2213 3 18.6601 3 16.7576V14.5669C3 12.6598 4.56487 11.1032 6.48202 11.1032H43.8635C45.776 11.1032 47.3455 12.6598 47.3455 14.5669V16.7576C47.3455 18.6601 45.776 20.2213 43.8635 20.2213H25.1722" stroke="#E2D0D4" stroke-width="3" stroke-linecap="round" stroke-linejoin="round"/>
<path d="M25.1721 40.8481L18.7521 34.6858C16.985 32.8666 16.985 29.8924 18.7521 28.072C20.2914 26.4843 22.841 26.6938 24.4547 28.1947C25.193 28.881 25.1488 28.881 25.8836 28.1947C27.4973 26.6949 30.0469 26.4843 31.5909 28.072C33.3545 29.8913 33.3545 32.8654 31.5909 34.6858L25.1721 40.8481Z" stroke="#E2D0D4" stroke-width="3" stroke-linecap="round" stroke-linejoin="round"/>
<path d="M17.9727 20.2213H17.9774" stroke="#E2D0D4" stroke-width="3" stroke-linecap="round" stroke-linejoin="round"/>
</svg>
