<svg width="24" height="24" viewBox="0 0 24 24" fill="none" xmlns="http://www.w3.org/2000/svg">
<path d="M1.03418 20.6797H22.9646" stroke="#462324" stroke-width="1.8" stroke-linecap="round" stroke-linejoin="round"/>
<path d="M3.33789 20.6796V12.4307" stroke="#462324" stroke-width="1.8" stroke-linecap="round" stroke-linejoin="round"/>
<path d="M8.74805 20.6796V12.4307" stroke="#462324" stroke-width="1.8" stroke-linecap="round" stroke-linejoin="round"/>
<path d="M20.6611 20.6796V12.4307" stroke="#462324" stroke-width="1.8" stroke-linecap="round" stroke-linejoin="round"/>
<path d="M3.49467 2H20.5097L22.9609 7.57606C22.987 7.71078 23 7.85421 23 7.99763C23 9.3145 21.9048 10.3836 20.5531 10.3836C19.6361 10.3836 18.8364 9.89253 18.4149 9.16238C17.9976 9.89253 17.1936 10.3836 16.2766 10.3836C15.3595 10.3836 14.5555 9.89253 14.1383 9.16238C13.7211 9.89253 12.9214 10.3836 12 10.3836C11.0786 10.3836 10.2833 9.89253 9.86171 9.16238C9.44449 9.89253 8.6448 10.3836 7.72343 10.3836C6.80205 10.3836 6.00672 9.89253 5.58514 9.16238C5.16792 9.89253 4.36823 10.3836 3.44686 10.3836C2.09522 10.3836 1 9.3145 1 7.99763C1 7.85421 1.01304 7.71078 1.03911 7.57606L3.49467 2Z" stroke="#462324" stroke-width="1.8" stroke-linecap="round" stroke-linejoin="round"/>
<path d="M5.55078 8.97557L6.63731 2.29126" stroke="#462324" stroke-width="1.8" stroke-linecap="round" stroke-linejoin="round"/>
<path d="M9.80957 8.97557C9.93126 6.74602 10.053 4.52081 10.1703 2.29126" stroke="#462324" stroke-width="1.8" stroke-linecap="round" stroke-linejoin="round"/>
<path d="M14.0678 8.97557C13.9461 6.74602 13.8244 4.52081 13.707 2.29126" stroke="#462324" stroke-width="1.8" stroke-linecap="round" stroke-linejoin="round"/>
<path d="M18.3268 8.97557L17.2402 2.29126" stroke="#462324" stroke-width="1.8" stroke-linecap="round" stroke-linejoin="round"/>
<path d="M6.94434 16.6594V15.1035" stroke="#462324" stroke-width="1.8" stroke-linecap="round" stroke-linejoin="round"/>
<path d="M13.2129 17.7722L18.1588 12.8828" stroke="#462324" stroke-width="1.8" stroke-linecap="round" stroke-linejoin="round"/>
<path d="M14.959 19.1194L18.3055 15.812" stroke="#462324" stroke-width="1.8" stroke-linecap="round" stroke-linejoin="round"/>
</svg>
