<svg width="24" height="24" viewBox="0 0 24 24" fill="none" xmlns="http://www.w3.org/2000/svg">
<g clip-path="url(#clip0_701_322)">
<path d="M3.85314 2.44543C3.60116 2.69801 3.16919 2.66193 2.9532 2.40935C2.70122 2.15678 2.73721 1.72379 2.9892 1.5073C4.32111 0.244418 5.79702 0.2805 7.05694 1.00214C7.56091 1.2908 8.02888 1.68771 8.46085 2.19286C8.85683 2.66193 9.21681 3.20316 9.46879 3.74439C10.2607 5.40418 10.3687 7.35262 9.18081 8.43509L8.28087 9.26498C8.35286 9.58972 8.49685 9.98662 8.67684 10.3474C8.96482 10.8887 9.3608 11.466 9.75677 11.9711C9.97276 12.2598 9.93676 12.6567 9.64878 12.8732C9.3608 13.0897 8.96482 13.0536 8.74884 12.765C8.31686 12.1876 7.88489 11.5742 7.52491 10.9248C7.23693 10.3835 7.02094 9.80621 6.94895 9.26498C6.94895 9.12065 6.94895 8.90415 7.02094 8.75982C7.02094 8.75982 7.16494 8.47117 7.27293 8.36292L8.24487 7.46086C8.92883 6.81138 8.82083 5.51242 8.24487 4.28563C8.02888 3.81656 7.7409 3.38357 7.41692 3.02275C7.09294 2.66193 6.73296 2.33719 6.33699 2.12069C5.54504 1.65162 4.6091 1.65162 3.78115 2.40935" fill="#462324"/>
<path d="M3.85314 2.44543C3.60116 2.69801 3.16919 2.66193 2.9532 2.40935C2.70122 2.15678 2.73721 1.72379 2.9892 1.5073C4.32111 0.244418 5.79702 0.2805 7.05694 1.00214C7.56091 1.2908 8.02888 1.68771 8.46085 2.19286C8.85683 2.66193 9.21681 3.20316 9.46879 3.74439C10.2607 5.40418 10.3687 7.35262 9.18081 8.43509L8.28087 9.26498C8.35286 9.58972 8.49685 9.98662 8.67684 10.3474C8.96482 10.8887 9.3608 11.466 9.75677 11.9711C9.97276 12.2598 9.93676 12.6567 9.64878 12.8732C9.3608 13.0897 8.96482 13.0536 8.74884 12.765C8.31686 12.1876 7.88489 11.5742 7.52491 10.9248C7.23693 10.3835 7.02094 9.80621 6.94895 9.26498C6.94895 9.12065 6.94895 8.90415 7.02094 8.75982C7.02094 8.75982 7.16494 8.47117 7.27293 8.36292L8.24487 7.46086C8.92883 6.81138 8.82083 5.51242 8.24487 4.28563C8.02888 3.81656 7.7409 3.38357 7.41692 3.02275C7.09294 2.66193 6.73296 2.33719 6.33699 2.12069C5.54504 1.65162 4.6091 1.65162 3.78115 2.40935" stroke="#462324" stroke-width="0.6"/>
<path d="M6.44343 17.2031C6.19145 16.9505 6.22745 16.5175 6.47943 16.301C6.73142 16.0484 7.16339 16.0845 7.37938 16.3371C7.88334 16.8783 8.35132 17.3835 8.85528 17.8525C9.32325 18.3216 9.79122 18.7185 10.2592 19.0793C10.7272 19.4402 11.1591 19.7649 11.5911 20.0536C12.0231 20.3422 12.4191 20.5948 12.815 20.8474C13.211 21.0639 13.571 21.2804 13.931 21.4247C14.2909 21.6051 14.6149 21.7494 14.9029 21.8577H14.9389C15.9108 22.2185 17.0268 22.3267 18.0347 22.2185C19.0786 22.1102 20.0506 21.7494 20.6985 21.2443C21.6705 20.4865 21.8145 19.6206 21.5265 18.7907C21.3825 18.3577 21.0945 17.9247 20.7345 17.5278C20.3746 17.1309 19.9066 16.734 19.4386 16.4814C18.2867 15.7959 16.9908 15.5433 16.3068 16.1928L15.3349 17.0948C15.2269 17.2031 15.0829 17.2752 14.9389 17.3113C14.9389 17.3113 14.6149 17.3835 14.4709 17.3113C13.823 17.167 13.139 16.8062 12.4911 16.3371C11.6631 15.7598 10.9072 15.002 10.2952 14.3886C10.0432 14.1361 10.0792 13.7031 10.2952 13.4866C10.5112 13.2701 10.9791 13.2701 11.1951 13.4866C11.7351 14.0639 12.4551 14.7495 13.175 15.2546C13.643 15.5794 14.111 15.868 14.5429 15.9763L15.4429 15.1464C16.6308 14.0639 18.5027 14.3165 20.1226 15.2546C20.7345 15.6154 21.2745 16.0484 21.7425 16.5536C22.2104 17.0587 22.6064 17.6721 22.8224 18.2855C23.2904 19.6206 23.0384 21.0278 21.5625 22.1824C20.6985 22.868 19.5106 23.301 18.2507 23.4453C17.0268 23.5896 15.7309 23.4453 14.5429 23.0484C14.5429 23.0484 14.5429 23.0484 14.5069 23.0484C14.147 22.9041 13.787 22.7597 13.391 22.5793C12.995 22.3989 12.599 22.1824 12.2031 21.9298C11.7711 21.6773 11.3391 21.4247 10.9072 21.0999C10.4752 20.7752 10.0072 20.4505 9.50324 20.0536C9.03527 19.6567 8.5313 19.2237 8.02734 18.7546C7.52337 18.2855 7.0194 17.7443 6.51543 17.167" fill="#462324"/>
<path d="M6.44343 17.2031C6.19145 16.9505 6.22745 16.5175 6.47943 16.301C6.73142 16.0484 7.16339 16.0845 7.37938 16.3371C7.88334 16.8783 8.35132 17.3835 8.85528 17.8525C9.32325 18.3216 9.79122 18.7185 10.2592 19.0793C10.7272 19.4402 11.1591 19.7649 11.5911 20.0536C12.0231 20.3422 12.4191 20.5948 12.815 20.8474C13.211 21.0639 13.571 21.2804 13.931 21.4247C14.2909 21.6051 14.6149 21.7494 14.9029 21.8577H14.9389C15.9108 22.2185 17.0268 22.3267 18.0347 22.2185C19.0786 22.1102 20.0506 21.7494 20.6985 21.2443C21.6705 20.4865 21.8145 19.6206 21.5265 18.7907C21.3825 18.3577 21.0945 17.9247 20.7345 17.5278C20.3746 17.1309 19.9066 16.734 19.4386 16.4814C18.2867 15.7959 16.9908 15.5433 16.3068 16.1928L15.3349 17.0948C15.2269 17.2031 15.0829 17.2752 14.9389 17.3113C14.9389 17.3113 14.6149 17.3835 14.4709 17.3113C13.823 17.167 13.139 16.8062 12.4911 16.3371C11.6631 15.7598 10.9072 15.002 10.2952 14.3886C10.0432 14.1361 10.0792 13.7031 10.2952 13.4866C10.5112 13.2701 10.9791 13.2701 11.1951 13.4866C11.7351 14.0639 12.4551 14.7495 13.175 15.2546C13.643 15.5794 14.111 15.868 14.5429 15.9763L15.4429 15.1464C16.6308 14.0639 18.5027 14.3165 20.1226 15.2546C20.7345 15.6154 21.2745 16.0484 21.7425 16.5536C22.2104 17.0587 22.6064 17.6721 22.8224 18.2855C23.2904 19.6206 23.0384 21.0278 21.5625 22.1824C20.6985 22.868 19.5106 23.301 18.2507 23.4453C17.0268 23.5896 15.7309 23.4453 14.5429 23.0484C14.5429 23.0484 14.5429 23.0484 14.5069 23.0484C14.147 22.9041 13.787 22.7597 13.391 22.5793C12.995 22.3989 12.599 22.1824 12.2031 21.9298C11.7711 21.6773 11.3391 21.4247 10.9072 21.0999C10.4752 20.7752 10.0072 20.4505 9.50324 20.0536C9.03527 19.6567 8.5313 19.2237 8.02734 18.7546C7.52337 18.2855 7.0194 17.7443 6.51543 17.167" stroke="#462324" stroke-width="0.6"/>
<path d="M7.38029 16.337C7.63227 16.5896 7.59628 17.0226 7.38029 17.2391C7.12831 17.4917 6.69633 17.4556 6.48035 17.2391C5.94038 16.6618 5.47241 16.1206 5.04044 15.5793C4.60846 15.0381 4.21249 14.4969 3.85251 13.9917C3.49253 13.4865 3.20455 12.9814 2.91657 12.5123C2.66459 12.0433 2.4126 11.5742 2.19662 11.1412C1.98063 10.7082 1.80064 10.2752 1.65665 9.87832C1.51266 9.48142 1.36867 9.1206 1.29667 8.72369C1.04469 7.8938 0.972693 6.99175 1.00869 6.08969C1.08069 5.15155 1.26068 4.2495 1.62065 3.45569C1.76464 3.13095 2.12462 2.98662 2.4486 3.09486C2.77258 3.23919 2.91657 3.60002 2.80858 3.92476C2.5206 4.57424 2.34061 5.33196 2.30461 6.12577C2.26861 6.8835 2.30461 7.64123 2.5206 8.36287C2.59259 8.68761 2.73658 9.01235 2.84458 9.37317C2.98857 9.734 3.16856 10.1309 3.34854 10.5278C3.52853 10.9247 3.74452 11.3577 4.0325 11.7907C4.28448 12.2598 4.57247 12.7288 4.89645 13.1979C5.22043 13.667 5.5804 14.1721 6.01238 14.6773C6.44435 15.1824 6.87632 15.7236 7.38029 16.2649" fill="#462324"/>
<path d="M7.38029 16.337C7.63227 16.5896 7.59628 17.0226 7.38029 17.2391C7.12831 17.4917 6.69633 17.4556 6.48035 17.2391C5.94038 16.6618 5.47241 16.1206 5.04044 15.5793C4.60846 15.0381 4.21249 14.4969 3.85251 13.9917C3.49253 13.4865 3.20455 12.9814 2.91657 12.5123C2.66459 12.0433 2.4126 11.5742 2.19662 11.1412C1.98063 10.7082 1.80064 10.2752 1.65665 9.87832C1.51266 9.48142 1.36867 9.1206 1.29667 8.72369C1.04469 7.8938 0.972693 6.99175 1.00869 6.08969C1.08069 5.15155 1.26068 4.2495 1.62065 3.45569C1.76464 3.13095 2.12462 2.98662 2.4486 3.09486C2.77258 3.23919 2.91657 3.60002 2.80858 3.92476C2.5206 4.57424 2.34061 5.33196 2.30461 6.12577C2.26861 6.8835 2.30461 7.64123 2.5206 8.36287C2.59259 8.68761 2.73658 9.01235 2.84458 9.37317C2.98857 9.734 3.16856 10.1309 3.34854 10.5278C3.52853 10.9247 3.74452 11.3577 4.0325 11.7907C4.28448 12.2598 4.57247 12.7288 4.89645 13.1979C5.22043 13.667 5.5804 14.1721 6.01238 14.6773C6.44435 15.1824 6.87632 15.7236 7.38029 16.2649" stroke="#462324" stroke-width="0.6"/>
</g>
<defs>
<clipPath id="clip0_701_322">
<rect width="24" height="24" fill="white"/>
</clipPath>
</defs>
</svg>
