<svg width="30" height="30" viewBox="0 0 30 30" fill="none" xmlns="http://www.w3.org/2000/svg">
<path d="M9.27618 15.9447C10.3679 15.9447 11.3295 15.4694 11.9231 14.7417C12.4952 15.4679 13.4445 15.9447 14.5209 15.9447C15.5974 15.9447 16.543 15.4703 17.1158 14.7472C17.7058 15.4717 18.6677 15.9447 19.7537 15.9447C21.8369 15.9447 23.4127 14.1628 22.9037 12.3789L21.9106 8.89828C21.7599 8.36957 21.2223 8 20.6041 8H8.38866C7.77042 8 7.2332 8.36928 7.08212 8.89828L6.09533 12.3584C5.81377 13.3451 6.18398 14.205 6.83742 14.9878V21.8119C6.83742 22.4669 7.43673 23 8.17948 23H20.8179C21.5606 23 22.1603 22.4669 22.1603 21.8119V17.3864C22.1603 17.0992 21.8867 16.8665 21.5613 16.8665C21.2359 16.8665 20.9623 17.0992 20.9623 17.3864V21.8119C20.9623 21.8939 20.9112 21.9742 20.8182 21.9742H17.1134V17.9145C17.1134 17.6273 16.8491 17.3908 16.5234 17.3908H12.4746C12.1492 17.3908 11.8846 17.6273 11.8846 17.9145V21.9742H8.17948C8.08651 21.9742 8.03571 21.8936 8.03571 21.8119V15.7267C8.39895 15.8694 8.8379 15.945 9.27618 15.945V15.9447ZM17.6941 9.02577H20.6037C20.6811 9.02577 20.7482 9.07882 20.7671 9.14505L21.7602 12.6292C22.0833 13.761 21.0835 14.9034 19.7584 14.9034C18.6169 14.9034 17.6941 14.0858 17.6941 13.0787V9.02577ZM12.538 9.02577H16.532V13.0787C16.532 14.0573 15.6648 14.9052 14.5329 14.9052C13.401 14.9052 12.538 14.0477 12.538 13.062V9.02577ZM13.0826 18.4485H15.9148V21.9739H13.0826V18.4485ZM7.23751 12.6122L8.22497 9.14535C8.2439 9.07911 8.3113 9.02606 8.38866 9.02606H11.3397V13.062C11.3397 14.0778 10.4097 14.9046 9.25891 14.9052C7.91983 14.9043 6.91079 13.7578 7.23751 12.6119V12.6122Z" fill="white"/>
<circle opacity="0.15" cx="15" cy="15" r="14.5" fill="#462324" stroke="white"/>
</svg>
