<svg width="30" height="30" viewBox="0 0 30 30" fill="none" xmlns="http://www.w3.org/2000/svg">
<circle opacity="0.15" cx="15" cy="15" r="14.5" fill="#462324" stroke="white"/>
<g clip-path="url(#clip0_716_321)">
<path fill-rule="evenodd" clip-rule="evenodd" d="M19.0204 8.01281C19.8723 8.01281 20.5631 8.57406 20.5627 9.26625C20.5623 9.95844 19.8719 10.5197 19.02 10.5194C18.1681 10.5194 17.4777 9.95813 17.4777 9.26625C17.4788 8.57438 18.1688 8.01375 19.0204 8.01281ZM19.0204 11.5194C20.5519 11.5194 21.7938 10.5103 21.7938 9.26594C21.7938 8.02156 20.5519 7.0125 19.0204 7.0125C17.4888 7.0125 16.2469 8.02156 16.2469 9.26594C16.2488 10.51 17.4896 11.5178 19.0204 11.5194ZM14.6235 11.1728C14.9523 11.8 15.3677 12.395 15.8608 12.9466C16.6977 13.8916 17.7577 14.7378 18.6958 15.2109C18.8946 15.3109 19.1458 15.3109 19.3446 15.2109C19.9654 14.8978 20.6392 14.4216 21.2669 13.8616V19.9997H9.65769C8.86962 19.9997 8.23077 19.4806 8.23077 18.8403C8.23077 18.2 8.86962 17.6809 9.65769 17.6809H11.1319C11.4715 17.6809 11.7473 17.4575 11.7473 17.1812V11.1731H14.6235V11.1728ZM16.3565 6.88063C15.5138 7.56531 15.1592 8.42031 15.3015 9.42188C15.5715 11.32 17.5335 13.3044 19.0204 14.1834C20.5069 13.3044 22.4692 11.3197 22.7392 9.42188C22.8815 8.42031 22.5265 7.56531 21.6842 6.88063C20.9619 6.29406 19.9912 6.00094 19.0204 6.00094C18.0496 6.00094 17.0785 6.29406 16.3565 6.88063ZM8.23077 11.3534V17.02C8.65692 16.7984 9.15192 16.6812 9.65769 16.6816H10.5165V10.1941H9.65769C8.87 10.1947 8.23154 10.7134 8.23077 11.3534ZM11.1319 9.19406H9.65769C8.19077 9.19531 7.00192 10.1612 7 11.3534V18.8406C7.00154 20.0328 8.19038 20.9988 9.65769 21H21.3146C21.9677 20.9994 22.4969 20.5697 22.4977 20.0391V12.5706C23.1277 11.7866 23.7942 10.7128 23.9615 9.53656C24.1469 8.235 23.6604 7.07219 22.5542 6.17344C21.6231 5.41688 20.3677 5 19.0204 5C17.6731 5 16.4177 5.41688 15.4862 6.17344C14.3804 7.07187 13.8938 8.235 14.0788 9.53656C14.1096 9.75094 14.1562 9.96344 14.2185 10.1731H11.7473V9.69375C11.7473 9.4175 11.4719 9.19375 11.1319 9.19375V9.19406Z" fill="white"/>
</g>
<defs>
<clipPath id="clip0_716_321">
<rect width="17" height="16" fill="white" transform="translate(7 5)"/>
</clipPath>
</defs>
</svg>
