<svg width="50" height="50" viewBox="0 0 50 50" fill="none" xmlns="http://www.w3.org/2000/svg">
<g clip-path="url(#clip0_751_426)">
<g clip-path="url(#clip1_751_426)">
<path d="M9.51631 8.14285L5.83372 17.2546C5.62616 17.7678 5.51953 18.3177 5.51953 18.8727V46.5357H37.5752V17.682C37.5752 17.4174 37.5995 17.1533 37.6477 16.8932L38.9618 9.80506" stroke="#E2D0D4" stroke-width="2.5" stroke-linecap="round" stroke-linejoin="round"/>
<path d="M38.0575 46.5357L42.6333 40.7707H46.1922V18.2525C46.1922 17.7819 46.1286 17.3132 46.0029 16.8592L42.0027 2.39589C41.7748 1.57164 41.0156 1 40.1492 1H8.58502C7.52667 1 6.54882 1.55628 6.01887 2.4597L2.80762 7.9347H36.0239L37.8322 5.168" stroke="#E2D0D4" stroke-width="2.5" stroke-linecap="round" stroke-linejoin="round"/>
<path d="M21.8956 13.5C28.9445 13.5 34.6565 19.1426 34.6565 26.1057C34.6565 33.0689 28.9445 38.7115 21.8956 38.7115C14.8468 38.7115 9.13477 33.0689 9.13477 26.1057C9.13477 19.1426 14.8468 13.5 21.8956 13.5Z" fill="#E2D0D4"/>
<g clip-path="url(#clip2_751_426)">
<mask id="path-4-inside-1_751_426" fill="white">
<path d="M21.453 34.0342C27.1488 33.6435 31.7752 23.222 24.0098 21.5505C26.5683 19.188 25.4378 15.7695 21.6347 17.5814C21.1217 17.8755 21.5929 18.6087 22.1091 18.3206C22.9485 17.7563 24.891 17.7232 24.4327 19.1231C24.1449 20.2908 23.2508 21.6501 21.8068 21.3212C21.9901 19.4581 19.5908 17.3354 17.7029 18.4775C16.595 19.3313 17.0533 20.9486 18.0262 21.8401C17.2479 22.0468 16.5837 22.4044 16.3618 22.5522C15.1204 23.4393 14.5302 24.7804 14.5575 26.6451C14.609 30.0002 18.4105 34.075 21.4514 34.0342H21.453ZM17.9635 19.716C18.0825 18.6238 19.4895 18.9904 20.1746 19.6134C20.6666 20.0555 20.9271 20.7011 20.8805 21.3348C20.2727 21.3559 19.6664 21.4132 19.0682 21.5173C18.4185 21.1281 18.0069 20.4356 17.9635 19.716ZM16.9182 23.2341C17.161 23.0682 17.9763 22.6669 18.9717 22.3953H18.9733C24.1031 21.555 27.3482 22.9776 27.2002 26.4761C27.2099 27.1459 27.0346 27.8716 26.7275 28.5881L24.6129 28.6168C23.8554 28.6274 23.2765 29.2127 23.2878 29.9233L23.2942 30.3276C23.3007 30.7847 22.9099 31.1618 22.4243 31.1679C21.937 31.1739 21.535 30.8073 21.5286 30.3517L21.5221 29.9474C21.5109 29.2368 20.9159 28.6666 20.1585 28.6772L16.0482 28.733C15.1574 26.7446 15.1509 24.5571 16.9166 23.2326L16.9182 23.2341ZM20.1697 29.3832C20.5139 29.3787 20.7953 29.6366 20.8017 29.958L20.8049 30.3623C20.8178 31.1935 21.5495 31.8603 22.4355 31.8482C23.3216 31.8362 24.0323 31.1498 24.0195 30.3185L24.013 29.9142C24.0082 29.5929 24.2832 29.3274 24.6257 29.3213L26.3882 29.2912C25.2609 31.3444 23.1704 33.1532 21.4401 33.1773C19.5892 33.1456 17.5582 31.4741 16.4036 29.4345L20.1713 29.3832H20.1697Z"/>
</mask>
<path d="M21.453 34.0342C27.1488 33.6435 31.7752 23.222 24.0098 21.5505C26.5683 19.188 25.4378 15.7695 21.6347 17.5814C21.1217 17.8755 21.5929 18.6087 22.1091 18.3206C22.9485 17.7563 24.891 17.7232 24.4327 19.1231C24.1449 20.2908 23.2508 21.6501 21.8068 21.3212C21.9901 19.4581 19.5908 17.3354 17.7029 18.4775C16.595 19.3313 17.0533 20.9486 18.0262 21.8401C17.2479 22.0468 16.5837 22.4044 16.3618 22.5522C15.1204 23.4393 14.5302 24.7804 14.5575 26.6451C14.609 30.0002 18.4105 34.075 21.4514 34.0342H21.453ZM17.9635 19.716C18.0825 18.6238 19.4895 18.9904 20.1746 19.6134C20.6666 20.0555 20.9271 20.7011 20.8805 21.3348C20.2727 21.3559 19.6664 21.4132 19.0682 21.5173C18.4185 21.1281 18.0069 20.4356 17.9635 19.716ZM16.9182 23.2341C17.161 23.0682 17.9763 22.6669 18.9717 22.3953H18.9733C24.1031 21.555 27.3482 22.9776 27.2002 26.4761C27.2099 27.1459 27.0346 27.8716 26.7275 28.5881L24.6129 28.6168C23.8554 28.6274 23.2765 29.2127 23.2878 29.9233L23.2942 30.3276C23.3007 30.7847 22.9099 31.1618 22.4243 31.1679C21.937 31.1739 21.535 30.8073 21.5286 30.3517L21.5221 29.9474C21.5109 29.2368 20.9159 28.6666 20.1585 28.6772L16.0482 28.733C15.1574 26.7446 15.1509 24.5571 16.9166 23.2326L16.9182 23.2341ZM20.1697 29.3832C20.5139 29.3787 20.7953 29.6366 20.8017 29.958L20.8049 30.3623C20.8178 31.1935 21.5495 31.8603 22.4355 31.8482C23.3216 31.8362 24.0323 31.1498 24.0195 30.3185L24.013 29.9142C24.0082 29.5929 24.2832 29.3274 24.6257 29.3213L26.3882 29.2912C25.2609 31.3444 23.1704 33.1532 21.4401 33.1773C19.5892 33.1456 17.5582 31.4741 16.4036 29.4345L20.1713 29.3832H20.1697Z" fill="white"/>
<path d="M21.453 34.0342V42.0342H21.7271L22.0005 42.0155L21.453 34.0342ZM24.0098 21.5505L18.5825 15.673L7.26002 26.1283L22.3263 29.3714L24.0098 21.5505ZM21.6347 17.5814L18.1939 10.3591L17.919 10.49L17.6549 10.6415L21.6347 17.5814ZM22.1091 18.3206L26.0084 25.3059L26.2973 25.1447L26.5719 24.9601L22.1091 18.3206ZM24.4327 19.1231L16.8298 16.6342L16.7368 16.9182L16.6653 17.2084L24.4327 19.1231ZM21.8068 21.3212L13.8452 20.5378L13.1547 27.5556L20.0303 29.1215L21.8068 21.3212ZM17.7029 18.4775L13.5622 11.6324L13.1766 11.8657L12.8195 12.1409L17.7029 18.4775ZM18.0262 21.8401L20.0794 29.5722L34.2096 25.8199L23.4312 15.9422L18.0262 21.8401ZM16.3618 22.5522L11.9263 15.8944L11.8173 15.967L11.7108 16.0431L16.3618 22.5522ZM14.5575 26.6451L6.55841 26.7623L6.55849 26.7677L14.5575 26.6451ZM21.4514 34.0342V26.0342H21.3978L21.3442 26.0349L21.4514 34.0342ZM17.9635 19.716L10.0105 18.8496L9.93722 19.5223L9.97798 20.1978L17.9635 19.716ZM20.1746 19.6134L14.7918 25.5317L14.8101 25.5483L14.8285 25.5649L20.1746 19.6134ZM20.8805 21.3348L21.1583 29.3299L28.332 29.0807L28.8589 21.922L20.8805 21.3348ZM19.0682 21.5173L14.9567 28.3799L17.5087 29.9089L20.4397 29.3989L19.0682 21.5173ZM16.9182 23.2341L11.4447 29.0685L16.1291 33.4632L21.4321 29.839L16.9182 23.2341ZM18.9717 22.3953V14.3953H17.9001L16.8662 14.6774L18.9717 22.3953ZM18.9733 22.3953V30.3953H19.6242L20.2666 30.2901L18.9733 22.3953ZM27.2002 26.4761L19.2074 26.1381L19.1978 26.3646L19.2011 26.5913L27.2002 26.4761ZM26.7275 28.5881L26.8359 36.5874L32.0329 36.517L34.0805 31.7398L26.7275 28.5881ZM24.6129 28.6168L24.5044 20.6175L24.5013 20.6176L24.6129 28.6168ZM23.2878 29.9233L15.2888 30.05L15.2888 30.0505L23.2878 29.9233ZM23.2942 30.3276L31.2934 30.215L31.2933 30.2077L31.2932 30.2003L23.2942 30.3276ZM22.4243 31.1679L22.5233 39.1673L22.5237 39.1672L22.4243 31.1679ZM21.5286 30.3517L29.5278 30.2388L29.5277 30.2316L29.5275 30.2245L21.5286 30.3517ZM21.5221 29.9474L13.5231 30.0741L13.5231 30.0747L21.5221 29.9474ZM20.1585 28.6772L20.2671 36.6764L20.27 36.6764L20.1585 28.6772ZM16.0482 28.733L8.74754 32.004L10.898 36.8037L16.1569 36.7322L16.0482 28.733ZM16.9166 23.2326L22.3901 17.3981L17.4902 12.8014L12.1159 16.8331L16.9166 23.2326ZM20.1697 29.3832L20.0645 21.3839L20.1697 37.3832V29.3832ZM20.8017 29.958L28.8015 29.8943L28.8011 29.8461L28.8001 29.7979L20.8017 29.958ZM20.8049 30.3623L12.8052 30.4259L12.8054 30.456L12.8059 30.4861L20.8049 30.3623ZM24.0195 30.3185L32.0185 30.1947L32.0185 30.1913L24.0195 30.3185ZM24.013 29.9142L16.0139 30.0343L16.0141 30.0415L24.013 29.9142ZM24.6257 29.3213L24.4888 21.3225L24.4848 21.3226L24.6257 29.3213ZM26.3882 29.2912L33.4008 33.1412L40.0357 21.0564L26.2512 21.2923L26.3882 29.2912ZM21.4401 33.1773L21.3032 41.1762L21.4275 41.1783L21.5517 41.1766L21.4401 33.1773ZM16.4036 29.4345L16.2947 21.4352L2.78664 21.6191L9.44169 33.3755L16.4036 29.4345ZM20.1713 29.3832L20.2802 37.3824L20.1713 21.3832V29.3832ZM22.0005 42.0155C25.7719 41.7567 28.7994 39.9096 30.8584 37.9529C32.9406 35.9741 34.5504 33.4166 35.4128 30.6666C36.2574 27.9732 36.5991 24.3252 34.935 20.7643C33.1206 16.8819 29.6174 14.5743 25.6933 13.7296L22.3263 29.3714C22.3821 29.3834 22.071 29.325 21.6209 28.9938C21.1455 28.6439 20.7197 28.1376 20.4397 27.5383C19.9141 26.4137 20.1992 25.7089 20.1459 25.8787C20.1104 25.9919 19.981 26.2174 19.8364 26.3548C19.6687 26.5142 19.9819 26.1163 20.9055 26.053L22.0005 42.0155ZM29.4371 27.428C32.1319 24.9396 34.9541 19.8787 32.4354 14.5709C31.0443 11.6393 28.3584 9.73856 25.3168 9.21911C22.5537 8.74722 20.0531 9.47337 18.1939 10.3591L25.0755 24.8036C25.0525 24.8146 24.8393 24.9146 24.4508 24.9896C24.062 25.0647 23.4254 25.1278 22.6233 24.9908C20.7833 24.6765 18.9332 23.4384 17.9803 21.4302C16.338 17.9693 18.4462 15.7989 18.5825 15.673L29.4371 27.428ZM17.6549 10.6415C15.6857 11.7708 14.0502 13.7689 13.5582 16.38C13.1049 18.7852 13.7626 20.9476 14.7545 22.4922C16.7703 25.6312 21.4664 27.8413 26.0084 25.3059L18.2098 11.3352C22.2356 9.08796 26.438 11.0756 28.2174 13.8465C29.0911 15.207 29.6949 17.149 29.2814 19.3429C28.8292 21.7428 27.3272 23.539 25.6145 24.5212L17.6549 10.6415ZM26.5719 24.9601C25.7261 25.5286 24.9759 25.7491 24.5105 25.8454C24.0323 25.9442 23.2855 26.0292 22.3377 25.8583C21.507 25.7085 19.3986 25.1378 17.8492 22.9467C16.0868 20.4544 16.423 17.8767 16.8298 16.6342L32.0357 21.6121C32.6716 19.6696 32.9369 16.5711 30.9129 13.7089C29.102 11.1478 26.5414 10.3583 25.1774 10.1123C22.6292 9.65274 19.8186 10.2209 17.6463 11.681L26.5719 24.9601ZM16.6653 17.2084C16.7619 16.8164 17.0206 16.0115 17.8668 15.1563C18.3414 14.6767 19.1077 14.0828 20.2023 13.7093C21.3528 13.3167 22.5374 13.2827 23.5832 13.5209L20.0303 29.1215C23.967 30.018 27.261 28.4102 29.2399 26.4104C30.9661 24.6659 31.8157 22.5976 32.2002 21.0379L16.6653 17.2084ZM29.7683 22.1046C30.2056 17.6605 27.7235 14.1987 25.3871 12.4144C22.8687 10.4911 18.1847 8.83622 13.5622 11.6324L21.8436 25.3225C19.1091 26.9767 16.5687 25.8121 15.676 25.1304C14.9654 24.5877 13.5913 23.1188 13.8452 20.5378L29.7683 22.1046ZM12.8195 12.1409C9.48138 14.7135 8.72996 18.5111 9.18097 21.385C9.59016 23.9923 10.9508 26.2073 12.6211 27.7381L23.4312 15.9422C24.1287 16.5814 24.7737 17.542 24.9875 18.9044C25.1042 19.6481 25.1111 20.679 24.7191 21.8255C24.3067 23.0318 23.5487 24.0724 22.5863 24.8141L12.8195 12.1409ZM15.9729 14.1081C14.2756 14.5588 12.8139 15.3031 11.9263 15.8944L20.7973 29.21C20.6868 29.2837 20.6018 29.3353 20.5537 29.364C20.501 29.3953 20.4604 29.418 20.4329 29.433C20.3792 29.4622 20.3448 29.4787 20.3247 29.4879C20.3006 29.499 20.2259 29.5333 20.0794 29.5722L15.9729 14.1081ZM11.7108 16.0431C7.84279 18.807 6.50238 22.9411 6.55841 26.7623L22.5567 26.5278C22.5555 26.45 22.5752 26.8439 22.3047 27.4579C22.0049 28.1383 21.5195 28.6992 21.0128 29.0613L11.7108 16.0431ZM6.55849 26.7677C6.62521 31.1179 8.90246 34.7859 11.0339 37.0705C13.0578 39.2398 16.7807 42.0975 21.5585 42.0335L21.3442 26.0349C21.8648 26.028 22.2607 26.1099 22.5035 26.18C22.7463 26.2501 22.8884 26.3231 22.9337 26.3478C23.0049 26.3867 22.9057 26.3409 22.733 26.1557C22.5656 25.9763 22.4672 25.8133 22.4357 25.7479C22.4239 25.7236 22.4466 25.7641 22.4759 25.8747C22.505 25.984 22.5517 26.2045 22.5566 26.5224L6.55849 26.7677ZM21.4514 42.0342H21.453V26.0342H21.4514V42.0342ZM25.9164 20.5825C25.7423 22.1807 24.895 24.301 22.7933 25.7451C20.9508 27.0111 19.1377 27.0633 18.2746 27.0003C16.6977 26.8852 15.5811 26.2496 14.7918 25.5317L25.5573 13.6952C24.0829 12.3542 21.9203 11.2238 19.4389 11.0427C18.1235 10.9467 15.8935 11.0731 13.7323 12.5581C11.3119 14.2212 10.2441 16.7053 10.0105 18.8496L25.9164 20.5825ZM14.8285 25.5649C13.5221 24.3914 12.7627 22.6413 12.9021 20.7476L28.8589 21.922C29.0916 18.761 27.8111 15.7196 25.5206 13.662L14.8285 25.5649ZM20.6027 13.3396C19.6795 13.3717 18.7038 13.4605 17.6967 13.6357L20.4397 29.3989C20.629 29.3659 20.8658 29.3401 21.1583 29.3299L20.6027 13.3396ZM23.1797 14.6547C24.7881 15.6183 25.8328 17.3094 25.9489 19.2342L9.97798 20.1978C10.1809 23.5619 12.049 26.6379 14.9567 28.3799L23.1797 14.6547ZM21.4321 29.839C21.3306 29.9084 21.2458 29.9624 21.1855 29.9998C21.1233 30.0383 21.0715 30.0689 21.0325 30.0914C20.9564 30.1353 20.9022 30.1639 20.8751 30.1779C20.8219 30.2054 20.8098 30.2094 20.837 30.1976C20.8608 30.1873 20.9 30.1714 20.9483 30.1542C20.9968 30.1369 21.0412 30.1231 21.0772 30.1133L16.8662 14.6774C15.2908 15.1071 13.5883 15.82 12.4043 16.6292L21.4321 29.839ZM18.9717 30.3953H18.9733V14.3953H18.9717V30.3953ZM20.2666 30.2901C21.0836 30.1563 21.6181 30.1487 21.8988 30.1679C22.1989 30.1884 22.0318 30.2261 21.6057 30.0216C21.1214 29.7893 20.3795 29.2712 19.8201 28.3293C19.2639 27.3928 19.1901 26.546 19.2074 26.1381L35.1931 26.8141C35.2843 24.657 34.8604 22.3205 33.577 20.1595C32.2905 17.9931 30.4444 16.5159 28.5262 15.5957C24.9549 13.8825 20.9461 13.9655 17.6801 14.5005L20.2666 30.2901ZM19.2011 26.5913C19.1954 26.1949 19.2449 25.9023 19.2835 25.7334C19.3226 25.5621 19.3628 25.4637 19.3744 25.4365L34.0805 31.7398C34.6955 30.305 35.2295 28.45 35.1994 26.3609L19.2011 26.5913ZM26.619 20.5889L24.5044 20.6175L24.7213 36.6161L26.8359 36.5874L26.619 20.5889ZM24.5013 20.6176C19.5958 20.686 15.2032 24.645 15.2888 30.05L31.2868 29.7965C31.3499 33.7804 28.1151 36.5688 24.7244 36.616L24.5013 20.6176ZM15.2888 30.0505L15.2952 30.4548L31.2932 30.2003L31.2868 29.796L15.2888 30.0505ZM15.295 30.4401C15.2328 26.0178 18.8581 23.2116 22.3249 23.1685L22.5237 39.1672C26.9617 39.1121 31.3685 35.5516 31.2934 30.215L15.295 30.4401ZM22.3252 23.1685C25.744 23.1261 29.465 25.792 29.5278 30.2388L13.5294 30.4646C13.605 35.8226 18.13 39.2217 22.5233 39.1673L22.3252 23.1685ZM29.5275 30.2245L29.5211 29.8201L13.5231 30.0747L13.5296 30.479L29.5275 30.2245ZM29.5211 29.8207C29.4361 24.4563 24.9703 20.6093 20.0469 20.6779L20.27 36.6764C16.8615 36.7239 13.5856 34.0174 13.5231 30.0741L29.5211 29.8207ZM20.0498 20.6779L15.9396 20.7337L16.1569 36.7322L20.2671 36.6764L20.0498 20.6779ZM23.3489 25.4619C23.3078 25.3702 23.5307 25.7838 23.4364 26.6252C23.3849 27.0841 23.2367 27.6553 22.9103 28.245C22.578 28.8454 22.1461 29.3104 21.7173 29.6321L12.1159 16.8331C5.95746 21.453 7.18413 28.5147 8.74754 32.004L23.3489 25.4619ZM11.4431 29.067L11.4447 29.0685L22.3917 17.3997L22.3901 17.3981L11.4431 29.067ZM20.2749 37.3825C16.6736 37.4299 12.8936 34.6304 12.8033 30.1181L28.8001 29.7979C28.6969 24.6429 24.3542 21.3275 20.0645 21.3839L20.2749 37.3825ZM12.802 30.0216L12.8052 30.4259L28.8047 30.2986L28.8015 29.8943L12.802 30.0216ZM12.8059 30.4861C12.8943 36.201 17.7334 39.913 22.5445 39.8475L22.3266 23.849C25.3656 23.8076 28.7413 26.186 28.804 30.2385L12.8059 30.4861ZM22.5445 39.8475C27.364 39.7819 32.1072 35.9243 32.0185 30.1947L16.0204 30.4423C15.9575 26.3752 19.2792 23.8905 22.3266 23.849L22.5445 39.8475ZM32.0185 30.1913L32.012 29.7869L16.0141 30.0415L16.0205 30.4458L32.0185 30.1913ZM32.0121 29.7941C32.0809 34.3722 28.3273 37.2574 24.7666 37.3201L24.4848 21.3226C20.2391 21.3974 15.9356 24.8135 16.0139 30.0343L32.0121 29.7941ZM24.7626 37.3202L26.5251 37.29L26.2512 21.2923L24.4888 21.3225L24.7626 37.3202ZM19.3755 25.4411C19.3521 25.4838 19.3032 25.5602 19.2324 25.6452C19.1996 25.6847 19.1691 25.7175 19.1441 25.7424C19.1188 25.7675 19.1056 25.7781 19.1082 25.7759C19.1103 25.7743 19.1384 25.7515 19.1965 25.7148C19.2537 25.6787 19.3571 25.6182 19.5092 25.5499C19.7828 25.4272 20.4123 25.1909 21.3285 25.1781L21.5517 41.1766C24.9617 41.129 27.624 39.4671 29.1723 38.2144C30.8807 36.8321 32.3501 35.055 33.4008 33.1412L19.3755 25.4411ZM21.577 25.1785C22.2881 25.1907 22.803 25.3542 23.081 25.4687C23.3604 25.5838 23.5014 25.6895 23.5259 25.7083C23.5477 25.725 23.4459 25.6354 23.3655 25.4935L9.44169 33.3755C10.516 35.2732 12.007 37.0392 13.7956 38.4095C15.5047 39.7188 18.098 41.1213 21.3032 41.1762L21.577 25.1785ZM16.5125 37.4337L20.2802 37.3824L20.0624 21.3839L16.2947 21.4352L16.5125 37.4337ZM20.1713 21.3832H20.1697V37.3832H20.1713V21.3832Z" fill="#462324" mask="url(#path-4-inside-1_751_426)"/>
<mask id="path-6-inside-2_751_426" fill="white">
<path d="M19.8885 24.005C19.8837 23.827 19.7277 23.6852 19.5379 23.6867C19.4302 23.6912 19.3514 23.7199 19.2999 23.7742C19.1745 23.9039 19.1874 24.171 19.2002 24.4078C19.2051 24.4938 19.2083 24.5768 19.2067 24.6507C19.2115 24.8287 19.3675 24.972 19.5588 24.969C19.665 24.9645 19.7438 24.9358 19.7968 24.8815C19.9223 24.7518 19.9094 24.4847 19.8965 24.2479C19.8917 24.1619 19.8885 24.0789 19.8901 24.005H19.8885Z"/>
</mask>
<path d="M19.8885 24.005C19.8837 23.827 19.7277 23.6852 19.5379 23.6867C19.4302 23.6912 19.3514 23.7199 19.2999 23.7742C19.1745 23.9039 19.1874 24.171 19.2002 24.4078C19.2051 24.4938 19.2083 24.5768 19.2067 24.6507C19.2115 24.8287 19.3675 24.972 19.5588 24.969C19.665 24.9645 19.7438 24.9358 19.7968 24.8815C19.9223 24.7518 19.9094 24.4847 19.8965 24.2479C19.8917 24.1619 19.8885 24.0789 19.8901 24.005H19.8885Z" fill="#462324"/>
<path d="M19.8885 24.005L13.8907 24.1675L14.0489 30.005H19.8885V24.005ZM19.5379 23.6867L19.4902 17.6869L19.3881 17.6877L19.2861 17.692L19.5379 23.6867ZM19.2999 23.7742L23.6136 27.9446L23.6346 27.9229L23.6554 27.901L19.2999 23.7742ZM19.2002 24.4078L13.2091 24.7332L13.2097 24.7439L19.2002 24.4078ZM19.2067 24.6507L13.2081 24.5202L13.2049 24.6667L13.2089 24.8132L19.2067 24.6507ZM19.5588 24.969L19.6534 30.9683L19.734 30.967L19.8145 30.9636L19.5588 24.969ZM19.7968 24.8815L24.0883 29.0747L24.0994 29.0633L24.1105 29.0519L19.7968 24.8815ZM19.8965 24.2479L25.8877 23.9225L25.8871 23.9118L19.8965 24.2479ZM19.8901 24.005L25.8887 24.1355L26.022 18.005H19.8901V24.005ZM25.8863 23.8425C25.7838 20.0608 22.6022 17.6621 19.4902 17.6869L19.5856 29.6865C16.8532 29.7082 13.9835 27.5932 13.8907 24.1675L25.8863 23.8425ZM19.2861 17.692C18.3329 17.732 16.4761 18.031 14.9445 19.6474L23.6554 27.901C22.2267 29.4088 20.5275 29.6504 19.7897 29.6814L19.2861 17.692ZM14.9862 19.6038C13.4775 21.1643 13.2746 22.97 13.2259 23.475C13.1642 24.1156 13.2073 24.7004 13.2091 24.7332L25.1914 24.0824C25.1803 23.8784 25.2106 24.2113 25.1705 24.6267C25.1473 24.867 25.0875 25.3132 24.9007 25.854C24.7104 26.4047 24.3393 27.1939 23.6136 27.9446L14.9862 19.6038ZM13.2097 24.7439C13.2104 24.7565 13.2094 24.7419 13.2085 24.7113C13.2076 24.682 13.206 24.6141 13.2081 24.5202L25.2052 24.7812C25.2121 24.468 25.1979 24.1976 25.1908 24.0717L13.2097 24.7439ZM13.2089 24.8132C13.3107 28.5713 16.4774 31.0183 19.6534 30.9683L19.4642 18.9697C22.2576 18.9257 25.1123 21.0862 25.2045 24.4881L13.2089 24.8132ZM19.8145 30.9636C20.8084 30.9212 22.5929 30.6051 24.0883 29.0747L15.5053 20.6883C16.8946 19.2665 18.5216 19.0078 19.3032 18.9745L19.8145 30.9636ZM24.1105 29.0519C25.6192 27.4913 25.8222 25.6857 25.8708 25.1807C25.9326 24.5401 25.8895 23.9553 25.8877 23.9225L13.9054 24.5733C13.9164 24.7773 13.8862 24.4444 13.9262 24.029C13.9494 23.7887 14.0092 23.3425 14.1961 22.8017C14.3863 22.251 14.7574 21.4618 15.4831 20.7111L24.1105 29.0519ZM25.8871 23.9118C25.8864 23.8992 25.8874 23.9137 25.8883 23.9443C25.8891 23.9736 25.8907 24.0416 25.8887 24.1355L13.8915 23.8745C13.8847 24.1877 13.8989 24.4581 13.9059 24.584L25.8871 23.9118ZM19.8901 18.005H19.8885V30.005H19.8901V18.005Z" fill="#462324" mask="url(#path-6-inside-2_751_426)"/>
<path d="M17.825 26.5274C17.997 26.5259 18.1723 26.6209 18.1772 26.8396L18.1187 26.8405L17.825 26.5274ZM17.825 26.5274L17.8234 26.5289C17.823 26.5289 17.8225 26.5289 17.8221 26.5289C17.6505 26.5324 17.4793 26.632 17.4825 26.8502M17.825 26.5274L17.825 26.5306L17.8266 26.7138L17.8278 26.845L17.8277 26.845L17.4825 26.8502M17.4825 26.8502L17.4825 26.8503L17.5975 26.8485L17.4825 26.8502ZM18.13 26.8407L18.1772 26.84L18.1781 26.9039L18.1191 26.841L18.13 26.8407ZM17.8278 26.8474L17.8279 26.8579L17.8333 27.4729L17.492 27.4753L17.4825 26.855L17.8277 26.8474L17.8278 26.8474ZM17.4921 27.4809C17.4969 27.6961 17.6667 27.793 17.8361 27.7932L17.8333 27.4757L17.4921 27.4809Z" fill="#462324" stroke="#462324" stroke-width="6"/>
<path d="M23.4124 24.3187C23.4123 24.3141 23.4121 24.3094 23.4119 24.3047C23.4117 24.3007 23.4116 24.2967 23.4114 24.2927C23.41 24.2609 23.4083 24.2292 23.4066 24.1981M23.4124 24.3187L23.0487 23.637C23.049 23.6369 23.0493 23.6369 23.0496 23.6369C23.2394 23.6354 23.3954 23.7772 23.4002 23.9552M23.4124 24.3187L23.0791 24.3374L23.074 24.2168L23.3074 24.2037L23.3169 24.2031L23.4066 24.1981M23.4124 24.3187L23.0627 23.9479L23.4002 23.9552M23.4066 24.1981C23.4018 24.1121 23.3986 24.0292 23.4002 23.9552M23.4066 24.1981L23.3168 24.203L23.3072 24.2035L23.074 24.2162L23.0636 23.9679L23.0634 23.9644L23.0648 23.9643L23.4002 23.9552M23.0897 24.5908L23.0791 24.3381L23.4125 24.32C23.4158 24.41 23.4159 24.5003 23.4057 24.5822L23.0897 24.5908ZM23.0269 23.9325L23.0275 23.9471L22.7184 23.9404V23.9369C22.7331 23.8511 22.7612 23.7766 22.8117 23.7244C22.8573 23.6762 22.9245 23.6482 23.0144 23.6394L23.0267 23.9282L23.0269 23.9325ZM22.7184 23.9737L23.0283 23.9653L23.039 24.2181L22.7184 24.2355V23.9737ZM23.055 24.5917L22.7184 24.6009C22.719 24.5741 22.7189 24.5461 22.7184 24.5172V24.3577L22.8114 24.3526L23.0548 24.588L23.055 24.5917ZM22.8112 24.3525L22.7184 24.3577V24.2627L22.8112 24.3525ZM22.8162 24.3522L22.7184 24.2566V24.2367L23.0391 24.2187L23.0442 24.3394L22.8162 24.3522ZM22.8163 24.3524L23.0442 24.34L23.0547 24.5853L22.8163 24.3524ZM22.7119 24.358L22.7168 24.3578L22.7119 24.358Z" fill="#462324" stroke="#462324" stroke-width="6"/>
<path d="M24.5069 26.7522C24.5037 26.5346 24.6738 26.435 24.8449 26.4309L24.8504 26.7469L24.5069 26.7522ZM24.5069 26.7522L24.5069 26.7537L24.8505 26.7485L24.8504 26.7471L24.5069 26.7522ZM24.507 26.7584L24.8505 26.7508L24.8507 26.7614L24.8561 27.3753L24.7871 27.3768L24.5716 27.3784L24.5155 27.3186L24.507 26.7584ZM24.8561 27.3791L24.8588 27.6845L24.5763 27.3834L24.8561 27.3791Z" fill="#462324" stroke="#462324" stroke-width="6"/>
<path d="M20.9952 26.8004C20.992 26.5829 21.1621 26.4833 21.3332 26.4792L21.3387 26.7952L20.9952 26.8004ZM20.9952 26.8004L20.9952 26.802L21.3387 26.7967L21.3387 26.7954L20.9952 26.8004ZM20.9953 26.8067L21.3388 26.7991L21.339 26.8097L21.3444 27.4236L21.2753 27.4251L21.0598 27.4267L21.0038 27.367L20.9953 26.8067ZM21.3444 27.4274L21.3471 27.7328L21.0645 27.4317L21.3444 27.4274Z" fill="#462324" stroke="#462324" stroke-width="6"/>
</g>
</g>
</g>
<defs>
<clipPath id="clip0_751_426">
<rect width="50" height="50" fill="white"/>
</clipPath>
<clipPath id="clip1_751_426">
<rect width="47" height="50" fill="white" transform="translate(1 1)"/>
</clipPath>
<clipPath id="clip2_751_426">
<rect width="13.5577" height="16.9643" fill="white" transform="translate(14.5576 17.0714)"/>
</clipPath>
</defs>
</svg>
