<svg width="315" height="306" viewBox="0 0 315 306" fill="none" xmlns="http://www.w3.org/2000/svg">
<path opacity="0.61" d="M273.255 69.8212C291.898 91.3449 305.15 111.977 311.26 136.57C317.454 161.499 315.857 185.79 303.741 208.628C283.658 246.487 254.535 275.471 216.501 295.45C197.441 305.462 177.262 307.447 156.469 303.747C133.44 299.646 112.027 291.622 92.83 277.62C83.7761 271.015 72.4702 267.488 63.4673 260.827C20.928 229.365 -3.0412 187.442 0.847114 133.9C5.0711 75.748 55.4443 19.0681 111.893 4.34992C147.922 -5.04036 181.321 2.4133 212.886 20.3909C236.799 34.01 257.173 52.0892 273.255 69.8212Z" fill="#E2D0D4"/>
</svg>
