<?xml version="1.0" encoding="UTF-8"?><svg id="Layer_1" xmlns="http://www.w3.org/2000/svg" viewBox="0 0 500 608.5"><defs><style>.cls-1{fill:#ee3e3c;}.cls-2{fill:#eb3f3c;}.cls-3{fill:#fff;}.cls-4{fill:#7bbc43;}.cls-5{fill:#5c1b0f;}</style></defs><path class="cls-2" d="m124.91,500.54c14.14-4.3,21.91-13.28,23.35-26.91.79-3.63.1-7.69-2.08-12.19-11.84-18.03-32.68-28.6-62.52-31.73-17.23-1-29.09-.36-35.56,1.96-1.61,14.55-2.91,28.9-3.84,43.01-1.37,8.54-3.34,34.78-5.95,78.75-.04.21,4.45,1.74,13.5,4.59,9.06,2.83,16.57,4.6,22.54,5.33,15.01,1.7,24.72,1.79,29.14.28,6.15.1,13.63-1.43,22.39-4.61,3.85-1.33,7.41-3.31,10.66-5.91,6.49-4.4,11-12.09,13.54-23.08-.61-6.8-3.05-12.33-7.32-16.56-4.22-4.82-10.19-9.14-17.85-12.92m-43.81-33.27c6.87-1.74,13.93-1.3,21.19,1.25,3.89,1.75,6,4.55,6.29,8.49-.64,5.34-9.79,8.46-27.44,9.4-.38-6.18-.4-12.59-.04-19.14m2.72,65.69c-1.73-6.23-2.37-12.96-1.89-20.24,8.37-1.8,16.32-1.39,23.92,1.24,5.42,1.84,8.54,5.1,9.44,9.7-.8,7.06-11.31,10.16-31.46,9.3"/><path class="cls-2" d="m364.41,500.96c-1.31-2.02-2.52-3.37-3.61-4.05-4.22-3.08-7.89-4.85-11.02-5.42-3.14-.58-7.38-.38-12.73.55-2.55.69-7.27,2.75-14.19,6.21-7.45,3.42-11.74,1.87-12.85-4.7-.45-10.43,4.53-17.54,14.91-21.41,11.84-3.73,22.95-3.72,33.28.04l2.22-40.14c-19.16-1.71-38.14,3.04-56.93,14.23-9.94,8.53-15.32,14.65-16.17,18.31-2.55,5.01-4.83,10.83-6.8,17.47-3.42,13.17-4.36,23.31-2.83,30.44,1.45,4.28,3.27,7.58,5.45,9.96,2.79,3.34,6,5.58,9.65,6.65,3.87,1.28,8.28,1.76,13.24,1.52,3.56-.08,6.33-.45,8.28-1.07,2.49-.21,6.81-1.63,12.94-4.29,5.56-3.24,9.84-4.92,12.85-5.02,1.96-.43,3.2.3,3.75,2.15.16,1.68-.23,3.68-1.23,6-2.31,4.17-5.37,8.16-9.19,11.91-5.26,4.22-13.04,6.87-23.32,7.94-8.9.75-15.63.61-20.16-.49-2.64,13.82-5.39,23.85-8.27,30.16,4.24,1.3,8.61,2,13.09,2.12,19.34-.1,34.64-3.28,45.91-9.53,9.19-5.81,15.39-11.71,18.65-17.74,2.17-3.09,4.66-7.85,7.45-14.3,3.39-10.56,4.18-19.61,2.44-27.16-1.08-4.36-2.68-7.81-4.82-10.33"/><path class="cls-2" d="m459.04,410.7c-7.57,5.36-18.78,9.52-33.66,12.47,2.6,18.65,4.51,38.03,5.68,58.05l-16.09,7.35c-2.52-14.21-5.38-41.7-8.63-82.44-11.88,4.97-24.3,7.96-37.25,8.95,12.53,77.56,19.43,135.14,20.68,172.66l33.06-14.48c-1.43-10.37-3.21-28.34-5.38-53.91l16.94-8.33c2.32,21.35,5.03,46.69,8.07,75.96,11.79-8.03,21.61-13.76,29.47-17.24-3.89-46.88-8.2-99.89-12.9-159.04"/><path class="cls-2" d="m235.29,511.43l-6.83-24.97c-3.77-12.94-6.57-23.95-8.44-33.04-1.23-6.08-2.62-15.19-4.14-27.3-13.85,3.41-28.24,6.33-43.23,8.8-1.17,7.65-2.28,15.55-3.34,23.75-.84,7.06-2.99,25.99-6.46,56.72-3.76,26.95-6.8,46.8-9.12,59.54,10.55,2.04,22.98,5.41,37.31,10.12.58-13.51,1.54-23.95,2.86-31.41,3.82-.5,8.62-1.98,14.44-4.42,1.54,8.27,3.99,17.95,7.26,28.99,11.86-7.47,23.6-13.26,35.23-17.38-3.64-9.93-5.86-16.47-6.68-19.65l-8.85-29.74Zm-40,16.44c.28-10.24,1.28-19.97,2.97-29.2,1.5,7.99,3.33,17.13,5.45,27.41-1.6,1.1-4.44,1.69-8.42,1.8"/><path class="cls-3" d="m202.28,435.7c1.88,11.19,21.51,61.23,24.99,70.07-3.42-10.23-18.73-72.24-18.73-72.24l-6.26,2.17Z"/><polygon class="cls-3" points="454.11 423.93 442.65 425.95 456.48 484.13 454.11 423.93"/><g><path class="cls-3" d="m333.35,102.34c-19.2-11.95-50.66-13.64-76.93-12.42,4.04-3.51,7.56-7.44,10.39-11.89,12.48-19.62,9.61-42.63,6.79-54.61-.29-1.25-.34-2.06-.32-2.53.09-.03.19-.06.29-.08,3.07-.9,4.99-3.94,4.48-7.1-.52-3.16-3.27-5.46-6.5-5.31-.49.02-2.15.15-4.05,1.01-37.21,11.6-52.22,32.99-58.16,50.2-5.32-9.86-13.72-20.15-27.71-27.79-26.52-14.48-70.68-.58-72.55.02-2.56.82-4.32,3.17-4.4,5.87-.07,2.69,1.57,5.13,4.09,6.09,11.39,4.32,19.99,26.32,23.46,46.21,1.34,7.7,4.76,13.32,10.46,17.18,2.47,1.68,5.39,2.98,8.8,3.95-13.23,5.51-26.48,12.69-37.2,22-40.61,35.27-44.72,81.79-11.57,130.99,35.03,51.98,103.42,78.75,131.8,79.14.44,0,.88,0,1.31,0,28.34-.46,81.63-34.68,103.86-95.36,28.42-77.59,26.34-125.19-6.35-145.55"/><path class="cls-1" d="m253.64,133.6s-61.09-10.33-105.21,12.29c-44.12,22.62-41.44,58.55-34.91,82.92,6.53,24.37,61.34,88.98,106.55,102.53,45.21,13.54,89.21-41.97,89.21-41.97,0,0,33.29-55.21,38.6-89.51,5.3-34.3,10.24-44.78,10.24-44.78,0,0-20.29-40.92-67.27-41.03-46.97-.11-84.55,7.56-84.55,7.56,0,0,31.66.43,47.34,11.99"/><path class="cls-3" d="m333.66,129.28c-.12,8.96-4.65,16.17-10.12,16.1-5.47-.07-9.8-7.4-9.67-16.36.12-8.96,4.65-16.17,10.12-16.09s9.8,7.4,9.67,16.36"/><path class="cls-3" d="m340.05,156.68c-.08,6.12-3.18,11.04-6.91,10.99-3.73-.05-6.69-5.06-6.61-11.18.08-6.12,3.18-11.04,6.91-10.99,3.73.05,6.69,5.06,6.61,11.17"/><path class="cls-4" d="m229.07,90.89c.79-31.49,22.88-49.18,33.74-56,1.3,10.41.91,24.4-6.7,36.35-5.67,8.9-14.76,15.49-27.04,19.65"/><path class="cls-4" d="m191.05,98.63c-18.32,2.58-30.73,2.52-37.94-.22-2.78-6.96-3.04-16.98-5.5-27.38-3.75-15.78-12.6-24.81-12.6-24.81,21.91-2.87,41.21,1.83,53.14,6.02,8.54,8.4,12.78,18.16,15.41,26.29-9.73-6.95-26.05-17.18-39.36-18.5,0,0,34.63,29.12,26.84,38.6"/><path d="m278.05,13.71c-.52-3.16-3.27-5.46-6.5-5.31-.49.02-2.15.15-4.06,1.01-37.21,11.6-52.22,32.99-58.16,50.21-5.32-9.86-13.72-20.15-27.71-27.79-26.52-14.48-70.67-.58-72.54.02-2.56.82-4.33,3.18-4.4,5.87-.07,2.69,1.57,5.13,4.09,6.09,11.39,4.32,19.99,26.33,23.46,46.21,1.34,7.7,4.76,13.32,10.46,17.18,5.64,3.83,13.51,5.82,24.63,5.97,13.07.18,30.63-2.19,54.29-7.14,20.96-4.38,36.17-13.8,45.2-27.99,12.48-19.62,9.61-42.63,6.79-54.61-.3-1.25-.34-2.06-.32-2.53.1-.03.2-.06.29-.08,3.07-.9,4.99-3.94,4.48-7.1m-87,84.92c-21.52,3.03-34.89,2.39-41.24-1.92-2.78-1.88-4.35-4.62-5.09-8.88-1.51-8.65-6.72-33.01-19.27-47.09,14.94-3.04,36.68-5.12,50.11,2.21,17.47,9.54,24.33,24.18,28.02,35.58-9.74-6.95-26.07-17.19-39.37-18.5,0,0,34.64,29.11,26.84,38.6m65.08-27.4c-6.84,10.75-18.64,18.12-35.06,21.93-1.06-2.27-2.39-5.78-2.79-9.85-.09-1.11-.18-3.2,0-6,.83-12.11,7.08-37.27,42.75-52.11.07.37.15.74.24,1.13,2.36,10.03,4.84,29.2-5.15,44.9"/><path class="cls-3" d="m282.67,146.74s-12.03,7.8-2.03,23.57c0,0,14.41-9.6,2.03-23.57"/><path class="cls-3" d="m213.11,159.31s-12.03,7.8-2.03,23.57c0,0,14.41-9.6,2.03-23.57"/><path class="cls-3" d="m160.41,177.11s-12.03,7.8-2.03,23.57c0,0,14.41-9.6,2.03-23.57"/><path class="cls-3" d="m189.23,232.02s-12.03,7.8-2.03,23.57c0,0,14.41-9.6,2.03-23.57"/><path class="cls-3" d="m249.14,210.2s-12.03,7.8-2.03,23.57c0,0,14.41-9.6,2.03-23.57"/><path class="cls-3" d="m313.16,185.96s-12.03,7.8-2.03,23.57c0,0,14.41-9.6,2.03-23.57"/><path class="cls-3" d="m304.99,230.22s-12.03,7.8-2.03,23.57c0,0,14.41-9.6,2.03-23.57"/><path d="m333.35,102.35c-36.46-22.71-117.2-8.39-122.49-7.42-4.29.58-62.94,9.02-96.56,38.2-18.61,16.16-29.53,34.69-32.74,54.75v-.05s-6.98,25.53,8.97,60.86h.03c.92,2.19,2.28,4.52,4.11,6.97,3,4.01,8.83,10.95,15.72,18.77,3.55,4.39,7.32,8.57,11.28,12.54,11.47,12.49,23.31,24.58,29.31,29.03,13,9.64,25.57,20.37,28.51,32.92.27,1.15.54,2.31.8,3.46,3.23,14.09,6.64,29,19.1,26.55,7.83-1.56,12.47-5.6,13.88-11.98,0-.03.01-.05.02-.08,0-.03.01-.05.02-.08,0-.03,0-.05.02-.08,0-.03,0-.05.02-.08,0-.03,0-.06.02-.08,0-.03,0-.06.02-.08,0-.03,0-.06.02-.08,0-.03.01-.06.02-.08,0-.03,0-.06.02-.08,0-.03,0-.06.02-.08,0-.03,0-.06.02-.08,0-.03.01-.05.02-.08,0-.03.01-.06.02-.08,0-.03,0-.05.02-.08,0-.03.01-.06.02-.08,0-.03.01-.05.02-.08,0-.03.01-.06.02-.08,0-.03,0-.05.02-.08,0-.03,0-.06.01-.08,0-.03.01-.05.02-.08,0-.03,0-.06.02-.08,0-.03,0-.06.02-.08,0-.03,0-.05.02-.08,0-.02,0-.05.02-.08,0-.03,0-.05.02-.08,0-.02,0-.05.02-.08,0-.03.01-.05.02-.08,0-.02.01-.05.02-.08,0-.03.01-.06.02-.08,0-.02.01-.05.02-.08,0-.03.01-.06.02-.08,0-.03.01-.06.02-.08,0-.03.01-.06.02-.08,0-.03,0-.06.01-.08,0-.03.01-.06.02-.08,0-.03.01-.05.02-.08,0-.03,0-.06.02-.08,0-.03,0-.06.02-.08,0-.03.01-.06.02-.08,0-.03,0-.06.02-.08,0-.03,0-.05.02-.08,0-.03,0-.06.02-.08,0-.03.01-.05.02-.08,0-.03.01-.06.02-.08,0-.03,0-.05.02-.08,0-.03.01-.06.02-.08,0-.03.01-.05.02-.08,0-.03.01-.05.02-.08,0-.03.01-.05.02-.08,0-.03,0-.06.01-.08,0-.03.01-.05.02-.08,0-.03.01-.05.02-.08,0-.02.01-.05.02-.08,0-.03,0-.06.02-.08,0-.02,0-.05.02-.08,0-.03,0-.06.02-.08,0-.02,0-.05.02-.08,0-.03.01-.06.02-.08,0-.02.01-.05.02-.08,0-.03,0-.06.02-.08,0-.02.01-.05.02-.08,0-.03.01-.06.02-.08,0-.03.01-.05.02-.08,0-.03.01-.06.02-.08,0-.03.01-.06.02-.08,0-.03.01-.06.02-.08,0-.03.01-.06.02-.08,0-.03.01-.06.02-.08,0-.03,0-.06.02-.08,0-.03,0-.06.01-.08l.02-.08s0-.05.02-.08c0-.03,0-.05.02-.08,0-.03.01-.05.02-.08,0-.03.01-.05.02-.08,0-.03,0-.05.02-.08,0-.03,0-.06.02-.08,0-.03.01-.05.02-.08,0-.03.01-.06.02-.08,0-.03.01-.05.02-.08.17-.73.23-1.53.31-2.31.05-.01.06-.04.11-.04,2.48-.57,7.68,1.3,11.07,8.85,7.39,16.48,8.97,35.77,4.41,57.66-4.43,21.28-2.87,41.01,4.4,52.2,3.84,5.92,9.04,9.39,15.41,10.28,2.78.39,5.44.39,7.95.04,5.87-.84,10.88-3.67,14.53-8.27,2.62-3.3,5.13-8.25,6.23-15.51,0-.03.01-.06.02-.08,0-.03.01-.05.02-.08,0-.03.01-.05.02-.08,0-.03.01-.05.02-.08,0-.03.01-.05.02-.08,0-.03.01-.05.02-.08s.01-.05.02-.08c0-.03.01-.05.02-.08,0-.03.01-.05.02-.08,0-.03.01-.05.02-.08,0-.03.01-.05.02-.08,0-.03.01-.05.02-.08,0-.03.01-.05.02-.08,0-.03.01-.05.02-.08,0-.03.01-.05.02-.08,0-.03.01-.05.02-.08,0-.03.01-.05.02-.08,0-.03.01-.05.02-.08,0-.03.01-.05.02-.08,0-.03.01-.05.02-.08,0-.03.01-.05.02-.08,0-.03.01-.05.02-.08,0-.02.01-.05.02-.08,0-.03.01-.05.02-.08l.02-.08s.01-.06.02-.08.01-.05.02-.08c0-.03.01-.06.02-.09,0-.03.01-.05.02-.08,0-.03.01-.05.02-.08,0-.03.01-.05.02-.08,0-.03.01-.05.02-.08,0-.03.01-.05.02-.08,0-.03.01-.05.02-.08,0-.03.01-.05.02-.08,0-.03.01-.05.02-.08,0-.03.01-.05.02-.08,0-.03.01-.05.02-.08,0-.03.01-.05.02-.08,0-.03.01-.05.02-.08,0-.03.01-.05.02-.08s.01-.06.02-.08c0-.03.01-.05.02-.08,0-.03.01-.05.02-.08,0-.03.01-.05.02-.08,0-.03.01-.05.02-.08,0-.03.01-.05.02-.08,0-.03.01-.05.02-.08,0-.03.01-.05.02-.08l.02-.08s.01-.06.02-.08c0-.03.01-.05.02-.08s.01-.05.02-.08c0-.03.01-.05.02-.08,0-.03.01-.06.02-.09,0-.02.01-.05.02-.08,0-.03.01-.05.02-.08,0-.03.01-.05.02-.08,0-.03.01-.05.02-.08,0-.03.01-.05.02-.08,0-.03.01-.05.02-.08,0-.02.01-.05.02-.08,0-.03.01-.05.02-.08,0-.03.01-.05.02-.08,0-.03.01-.05.02-.08,0-.03.01-.05.02-.08,0-.03.01-.05.02-.08,0-.03.01-.05.02-.08,0-.03.01-.06.02-.08,0-.03.01-.05.02-.08,0-.03.01-.05.02-.08,0-.03.01-.05.02-.08,0-.03.01-.05.02-.08,0-.03.01-.05.02-.08,0-.03.01-.05.02-.08s.01-.05.02-.08c0-.03.01-.05.02-.08,0-.03.01-.05.02-.08,0-.03.01-.05.02-.08,0-.03.01-.05.02-.08,1.11-7.27.79-16.87-2.28-29.51-2.44-9.99-5.73-18.52-8.6-25.95-4.32-11.2-7.85-20.34-6.96-29.96,1.19-3.84,3.13-7.83,6.08-12.11,6-8.71,14.55-20.41,23.34-32.45,16.96-23.21,35.06-48,41.4-60.22,7.32-14.12,16.13-42.36,19.1-56.3,0-.03,0-.05.01-.07,0-.03.01-.05.02-.08,0-.03.01-.05.02-.08,0-.03.01-.05.02-.08,0-.03.01-.05.02-.08,0-.03.01-.05.02-.08,0-.03.01-.05.02-.08,0-.03.01-.05.02-.08,0-.03.01-.05.02-.08,0-.03.01-.05.02-.08,0-.03.01-.05.02-.08.01-.06.02-.11.03-.17,0-.03,0-.05.02-.08,0-.03,0-.05.02-.08,0-.03,0-.05.02-.08,0-.03,0-.05.01-.08,0-.03.01-.05.02-.08,0-.03,0-.05.02-.08,0-.03,0-.05.02-.08,0-.03,0-.05.02-.08,0-.03,0-.05.01-.08,0-.03.01-.05.02-.08,0-.03.01-.05.02-.08,0-.03.01-.05.02-.08.02-.06.02-.11.03-.17,0-.03,0-.05.02-.07,0-.03,0-.05.02-.08,0-.03.01-.05.02-.08,0-.03,0-.05.02-.08,0-.03,0-.05.02-.08,0-.03,0-.05.02-.08,0-.03,0-.05.02-.08,0-.03,0-.05.02-.08,0-.03,0-.05.02-.08,0-.03,0-.05.02-.08,0-.03,0-.05.01-.08.02-.06.02-.11.03-.17,0-.03.01-.05.02-.08,0-.03.01-.05.02-.08,0-.03.01-.05.02-.08,0-.03,0-.05.02-.08,0-.03,0-.05.02-.08,0-.03.01-.05.02-.08,0-.03.01-.05.02-.08,0-.03.01-.05.02-.08,0-.03,0-.05.02-.08,0-.03,0-.05.02-.08,0-.03,0-.05.02-.08,0-.03,0-.05.02-.08.01-.06.02-.11.03-.17,0-.03.01-.05.02-.08,0-.03.01-.05.02-.08,0-.03.01-.05.02-.08,0-.03.01-.05.02-.08,0-.03.01-.06.02-.08,0-.03.01-.05.02-.08,0-.03.01-.05.02-.08,0-.03.01-.05.02-.08,0-.03.01-.05.02-.08,0-.03.01-.05.02-.08,0-.03,0-.05.02-.08.01-.06.02-.1.03-.17,0-.03,0-.05.02-.08,0-.03,0-.05.02-.08,0-.03,0-.05.01-.08,0-.03.01-.05.02-.08,0-.03,0-.05.02-.08,0-.03,0-.05.02-.08,0-.03,0-.05.02-.08,0-.03,0-.05.01-.08,0-.03.01-.05.02-.08,0-.03.01-.05.02-.08,0-.03.01-.05.02-.08,0-.03.01-.05.02-.08.53-2.44.87-4.46,1.01-5.9,10.66-48.49,3.56-79.91-21.39-95.45Zm-220.11,154.7c-4.61-6.84-8.31-13.41-11.22-19.71,1.23-.07,2.56-.06,4.09.09,13.9,1.38,31.84,18.73,32.93,19.8,9.42,10.51,34.52,20.88,46.06,13.12.93-.62,1.88-1.28,2.85-1.95,8.61-5.94,19.13-13.18,33.7-12.06,7.51.58,11.52,3.26,16.18,6.36,5.23,3.49,11.19,7.45,22.38,8.43,21.58,1.87,39.77-8.74,47.35-27.01,6.55-15.78,18.3-29.79,27.41-40.66l1.98-2.36c1.89-2.26,3.62-3.56,5.09-4.21-3.21,13.91-7.95,29.44-14.25,46.65-20.7,56.51-71.01,86.71-92.17,87.05-.27,0-.54,0-.83,0-20.84-.28-87.17-22.51-121.57-73.55Zm9.37-114.34c31.26-27.15,89.49-35.16,90.08-35.24.11-.01.22-.03.32-.05.49-.09,30.63-5.57,61.47-5.15,19.59.27,39.46,2.92,52.17,10.84,18.5,11.52,24.41,35.42,17.74,72.48-2.88.05-6.41,1.47-10.29,6.06l-1.99,2.34c-9.31,10.98-21.32,25.13-28.17,41.36-7.02,16.62-22.88,25.85-42.32,24.13-9.52-.84-14.29-4.02-19.32-7.36-4.92-3.27-10-6.65-19.11-7.36-16.64-1.32-28.56,6.81-37.44,12.87-.96.65-1.89,1.29-2.81,1.9-7.94,5.28-29.54-2.84-37.94-12.24l-.11-.11c-.82-.81-20.11-19.72-36.47-21.37-4.72-.48-8.16-.05-10.7.8-13.12-38.94,4.88-66.52,24.88-83.89Zm142.29,206.12c-4.46,6.39-6.94,12.31-8.04,18,0,.03-.01.06-.02.08,0,.02-.01.05-.02.08,0,.03-.01.06-.02.08,0,.02-.01.05-.02.08,0,.03-.01.06-.02.08,0,.02-.01.05-.02.08,0,.03-.01.05-.02.08,0,.03-.01.06-.02.08,0,.03-.01.05-.02.08,0,.03-.01.05-.02.08,0,.03-.01.05-.02.08,0,.03-.01.05-.02.08,0,.03-.01.05-.02.08,0,.03-.01.06-.02.08,0,.03,0,.06-.02.08,0,.03,0,.06-.01.08,0,.03-.01.06-.02.08,0,.03,0,.06-.02.08,0,.03,0,.05-.02.08,0,.03-.01.06-.02.09,0,.03,0,.05-.01.08,0,.03-.01.06-.02.08,0,.03,0,.05-.02.08,0,.03,0,.05-.02.08,0,.03-.01.05-.02.08,0,.03,0,.06-.02.08,0,.03,0,.05-.02.08,0,.03-.01.05-.02.08,0,.03-.01.05-.02.08,0,.03-.01.05-.02.08,0,.02,0,.05-.02.08,0,.03,0,.06-.02.08,0,.03-.01.06-.02.08s-.01.05-.02.08c0,.03-.01.05-.02.08,0,.03-.01.06-.02.08,0,.02-.01.05-.02.08s-.01.06-.02.08c0,.02-.01.05-.02.08,0,.03-.01.06-.02.08,0,.02-.01.05-.02.08,0,.03-.01.06-.02.08,0,.03-.01.05-.02.08,0,.03-.01.05-.02.08,0,.03-.01.05-.02.08,0,.03-.01.05-.02.08,0,.03,0,.06-.01.09,0,.02-.01.05-.02.07,0,.03-.01.06-.02.08,0,.03-.01.06-.02.08,0,.03-.01.06-.02.08,0,.03,0,.06-.01.08,0,.03-.01.06-.02.08,0,.03-.01.05-.02.08,0,.03-.01.06-.02.08,0,.03,0,.05-.02.08,0,.03,0,.06-.01.08,0,.03-.01.05-.02.08,0,.03-.01.06-.02.08,0,.03-.01.05-.02.08,0,.03,0,.05-.02.08,0,.03,0,.05-.01.08,0,.03-.01.06-.02.09,0,.03-.01.05-.02.08,0,.03,0,.05-.02.08,0,.02-.01.05-.02.08,0,.03-.01.06-.02.08,0,.03,0,.05-.02.08,0,.03-.01.06-.02.08,0,.02-.01.05-.02.08,0,.03-.01.06-.02.08,0,.03-.01.05-.02.08s0,.06-.02.08c0,.03-.01.05-.02.08,0,.03-.01.05-.02.08,0,.02-.01.05-.02.08,0,.03-.01.05-.02.08,0,.03-.01.06-.02.08,0,.03-.01.06-.02.08,0,.03-.01.05-.02.08-2.43,12.51,1.88,23.84,6.73,36.57,2.9,7.62,5.94,15.6,8.22,25.16,2.28,9.55,2.95,17.98,2.15,24.91-.87,2.7-2.06,5.05-3.6,6.96-4.83,6.01-11.71,6.45-16.63,5.76-4.41-.62-7.88-2.95-10.6-7.09-6.19-9.46-7.45-26.98-3.54-46.37,4.7-23.31,2.86-43.9-5.15-61.56-4.16-9.16-11.37-13.09-16.94-12.58-.44.04-.87.11-1.29.21-3.05.69-5.14,2.7-5.85,5.39,0,.03-.01.05-.02.08,0,.03-.01.06-.02.08,0,.03,0,.05-.02.08,0,.03,0,.06-.02.08,0,.03,0,.05-.02.08,0,.03,0,.06-.02.09,0,.02,0,.05-.02.08,0,.03,0,.06-.02.09,0,.02,0,.05-.02.08,0,.03-.01.06-.02.08,0,.03,0,.06-.01.08s0,.06-.02.08c0,.03-.01.06-.02.08,0,.03-.01.06-.02.08,0,.03,0,.06-.02.08,0,.03,0,.06-.01.08,0,.03-.01.06-.02.08,0,.03,0,.06-.02.08,0,.03,0,.06-.02.08s0,.06-.02.08c0,.03,0,.06-.02.08,0,.03,0,.05-.02.08,0,.03,0,.06-.02.08,0,.03,0,.05-.02.08,0,.03-.01.06-.02.09,0,.03,0,.05-.02.08,0,.03,0,.06-.02.09,0,.03-.01.05-.02.08,0,.03-.01.05-.02.08,0,.03,0,.05-.02.08,0,.03,0,.05-.01.08,0,.02-.01.05-.02.08,0,.03,0,.06-.02.08,0,.02,0,.05-.02.08s0,.06-.02.08c0,.02,0,.05-.02.08,0,.03,0,.06-.02.08,0,.02,0,.05-.02.08s0,.06-.02.08c0,.03-.01.05-.02.08,0,.03-.01.06-.02.08,0,.03,0,.06-.02.08,0,.03-.01.06-.02.08,0,.03-.01.06-.02.08,0,.03,0,.06-.02.08,0,.03,0,.06-.01.08,0,.03-.01.06-.02.08,0,.03,0,.05-.02.08,0,.03,0,.05-.02.08,0,.03,0,.06-.02.08,0,.03,0,.05-.02.08,0,.03,0,.06-.02.08s0,.05-.02.08c0,.03,0,.06-.02.08s-.01.05-.02.08c0,.03-.01.06-.02.08,0,.03,0,.05-.02.08,0,.03-.01.06-.02.08,0,.03-.01.05-.02.08,0,.03-.01.06-.02.08,0,.02,0,.05-.02.08,0,.03,0,.06-.01.08,0,.03-.01.05-.02.08,0,.03,0,.06-.02.08s0,.05-.02.08c0,.03,0,.06-.02.09,0,.02,0,.05-.02.08,0,.03,0,.05-.02.08,0,.02,0,.05-.02.08,0,.03,0,.05-.02.08s-.01.06-.02.08c0,.03-.01.06-.02.08,0,.03-.01.06-.02.08,0,.03-.01.06-.02.08,0,.03-.01.06-.02.08,0,.03,0,.06-.02.08,0,.03,0,.06-.01.08,0,.03-.01.06-.02.08,0,.03,0,.06-.02.08,0,.03,0,.05-.02.08-.24.9-.34,1.87-.25,2.9.03.4.01.74.03,1.11-1.43,2.37-3.98,3.84-7.94,4.61-5.91,1.17-8.53-7.97-11.76-21.75-.27-1.15-.54-2.31-.82-3.47-1.1-4.58-3.23-8.86-6.07-12.92,21.42,10.04,41.32,15.19,53.65,15.36.44,0,.88,0,1.3,0,12.57-.2,30.04-7.06,47.53-19.9-7.01,9.49-13.57,18.44-18.48,25.47Z"/><path class="cls-3" d="m251.73,476.56c-6.37-.9-9.29-3.09-13.13-9.01-7.26-11.2-7.87-28.66-3.44-49.94,4.56-21.89,3.18-41.03-4.21-57.51-3.38-7.56-11.26-12.71-13.75-12.13-1.37.32-5.67,4.17-5.61,4.9.93,10.54.7,13.71-9.71,15.77-12.46,2.43-14.03-9.2-17.26-23.29-.27-1.15-2.33-6.36-2.6-7.52-2.94-12.54-17.15-23.44-30.15-33.09-11.97-8.89-45.7-46.83-54.83-59.03-5.82-7.76-4.91-8.87-1.48-13.22,1.97-2.52,2.85-5.74,12.52-4.77,16.36,1.65,35.31,22.64,36.13,23.46,0,0,28.46,17.47,36.4,12.18.91-.61,8.55-4.35,9.51-5,8.89-6.06,16.06-12.32,32.71-11,9.11.72,14.02,4.59,18.95,7.86,5.03,3.34,10.62,6.7,20.13,7.55,19.43,1.72,37.95-10.98,44.97-27.6,6.85-16.22,18.25-28.22,27.56-39.2l3.81-4.64c3.83-4.08,6.74-4.27,9.94-2.99,3.95,1.58,4.28,3.49,4.31,8,.05,7.41-11.05,44.67-20.02,61.96-6.34,12.22-24.33,37.35-41.29,60.55-8.79,12.03-16.78,24.52-22.77,33.22-12.37,17.95-10.16,29.46-3.19,47.53,2.87,7.43,6.55,16.97,8.99,26.96,6.14,25.17,5.71,32.69.48,39.29-3.64,4.6-4.83,8.95-10.69,9.78,0,0-9.51,1.3-12.29.92Z"/><path class="cls-5" d="m354.8,196.59c.04,7.4-11.18,45.92-20.13,63.22-6.34,12.22-24.44,36.98-41.39,60.18-8.8,12.04-17.34,23.72-23.34,32.44-12.36,17.95-7.46,30.67-.47,48.75,2.88,7.42,6.17,15.95,8.6,25.94,3.59,14.7,3.42,25.36,1.62,32.99-10.17,1.54-26.13,1.78-32.01-9.94-8.76-17.48-.54-46.54-6.48-61.4-2.27-5.67-5.19-8.14-7.91-9.04-1.12-6.9-3.07-13.43-5.82-19.59-3.39-7.56-8.58-9.45-11.06-8.88-1.38.33-1.48,1.19-1.41,1.92.19,2.19.14,4.22-.18,6.06l-2.28-3.98s-5.08-1.44-6.58,2.94c-1.49,4.42-5.69,6.21-9.11-10.45-3.33-16.19-25.39-37.54-38.99-36.94-1,.04-1.98.17-2.98.36-.83-.64-1.67-1.27-2.51-1.89-11.97-8.88-47.17-48.19-56.29-60.37-2.15-2.87-3.67-5.6-4.57-8.1,6.12-2.9,15.82-5.69,23.55.54,12.32,9.95,28.59,28.41,46.34,29.96,7.26.63,14.73-.19,21.5-2.99,4.11-1.7,7.35-4.77,10.69-7.6,3.12-2.65,6.38-4.79,10.17-6.36,8.31-3.44,17.7-4.5,26.44-2.16,2.38.64,4.69,1.52,6.9,2.61,6.32,3.14,12.19,3.88,17.26,3.38,2.1.6,4.48,1.05,7.27,1.29,19.43,1.73,35.3-7.51,42.32-24.13,6.85-16.21,18.86-30.38,28.17-41.35l1.99-2.34c5.72-6.79,10.73-6.67,13.93-5.38,3.95,1.58,6.73,5.82,6.76,10.33"/><path d="m259.62,480.3c-2.51.36-5.18.35-7.95-.04-6.37-.9-11.56-4.37-15.41-10.29-7.27-11.2-8.82-30.91-4.4-52.19,4.56-21.88,2.98-41.17-4.41-57.66-3.39-7.56-8.58-9.43-11.07-8.86-1.37.32-1.47,1.19-1.41,1.91.93,10.54-3.83,16.99-14.24,19.05-12.46,2.43-15.87-12.48-19.1-26.56-.26-1.15-.53-2.31-.8-3.46-2.94-12.55-15.5-23.29-28.5-32.94-11.97-8.89-47.16-48.19-56.29-60.38-5.81-7.76-7.08-14.42-3.66-18.77,1.98-2.52,6.35-5.29,16.02-4.32,16.36,1.65,35.65,20.55,36.47,21.37l.11.11c8.4,9.4,30.01,17.53,37.94,12.24.92-.61,1.85-1.24,2.81-1.9,8.88-6.06,20.79-14.19,37.44-12.87,9.11.72,14.18,4.09,19.11,7.36,5.03,3.34,9.8,6.52,19.32,7.36,19.44,1.72,35.3-7.51,42.32-24.13,6.85-16.22,18.86-30.38,28.17-41.36l1.98-2.34c5.74-6.79,10.74-6.66,13.94-5.38,3.95,1.58,6.72,5.81,6.76,10.32.05,7.41-11.17,45.93-20.13,63.22-6.34,12.22-24.44,36.99-41.39,60.18-8.79,12.03-17.34,23.72-23.33,32.43-12.36,17.95-7.44,30.67-.47,48.74,2.87,7.43,6.16,15.96,8.6,25.95,6.14,25.17,1.31,38.34-3.93,44.94-3.65,4.59-8.66,7.42-14.52,8.25m-43.45-135.11c5.57-.51,12.79,3.42,16.94,12.58,8.01,17.66,9.85,38.25,5.15,61.56-3.91,19.39-2.66,36.91,3.54,46.37,2.71,4.15,6.19,6.47,10.6,7.1,4.92.69,11.8.25,16.63-5.76,5.98-7.45,6.91-21.25,2.79-38.56-2.28-9.57-5.32-17.54-8.22-25.16-7.05-18.51-12.97-34.05,1.29-54.49,6.08-8.71,14.69-20.36,23.56-32.35,16.96-22.92,35.08-47.41,41.34-59.31,9.18-17.45,20.09-55.16,20.09-61.41,0-2.55-1.39-5.08-3.16-5.8-1.68-.68-4.77.15-8.43,4.53l-1.98,2.36c-9.11,10.86-20.86,24.86-27.41,40.63-7.58,18.26-25.76,28.86-47.34,26.97-11.18-.98-17.14-4.95-22.37-8.44-4.66-3.11-8.67-5.79-16.18-6.37-7.13-.55-14.14,1-20.58,4.05-6.37,3.02-11.54,7.95-17.85,11.01-8.1,3.92-18.17.91-25.97-2.3-10.32-4.24-17.4-11.72-25.84-18.66-7.01-5.76-15.98-12.17-25.28-13.1-5.17-.51-8.79.2-10.2,2.02-1.93,2.48-.46,7.56,3.86,13.3,8.77,11.61,43.77,50.45,55.12,58.85,13.83,10.22,27.24,21.73,30.67,36.01.28,1.16.55,2.32.82,3.47,3.23,13.78,5.84,22.92,11.76,21.75,7.21-1.4,9.88-5.03,9.27-12.44-.34-4.08,2.05-7.29,6.09-8.21.41-.1.85-.17,1.29-.21"/><path class="cls-3" d="m272.87,275.75s6.7-7.74,13.1-3.09c6.43,4.68,11.39,10.69,15.41,4.54,0,0-.29,5.77-6.2,6.19-5.94.42-9.61-11.94-22.31-7.65"/><path class="cls-3" d="m215.68,320.27s4.33-9.13,8.77-9.3c4.43-.18,7.7,2.74,10.82,7.19,3.14,4.48,10.27,12.47,14.61,12.09,0,0-8.46.46-11.91-4.06-3.43-4.49-9.99-11.27-13.29-11-3.3.26-7.7,2.61-9,5.08"/><path class="cls-3" d="m241.79,288.13c-3.18-3.65-7.13-7.73-13.82-11.17-16.11-8.3-23.69,4.14-28.42,11.18-2.26,3.36-6.02,8.6-10.98,11.81-.1.06-.2.12-.28.17-.9.54-1.8,1.02-2.7,1.44h-.02c-.06.02-.1.05-.16.07-.37.15-.73.28-1.11.41-8.66,3-15.47-3.76-16.18-4.5-.02-.01-.03-.02-.03-.04,14.39,9.36,23.97-8.16,27.1-13.67,3.09-5.43,13.18-18.51,24.97-15.6,11.41,2.82,21.04,18.88,21.63,19.89"/></g></svg>